<svg xmlns="http://www.w3.org/2000/svg" viewBox="0 0 720 360"><rect x="0" y="0" width="720" height="360" rx="16" fill="#EBEBEB"/><circle cx="120" cy="90" r="22" fill="#B0B0B0"/><circle cx="240" cy="90" r="22" fill="#B0B0B0"/><circle cx="360" cy="90" r="22" fill="#B0B0B0"/><circle cx="480" cy="90" r="22" fill="#B0B0B0"/><circle cx="600" cy="90" r="22" fill="#B0B0B0"/><circle cx="120" cy="155" r="22" fill="#FFB919"/><circle cx="240" cy="155" r="22" fill="#FFB919"/><circle cx="360" cy="155" r="22" fill="#FFB919"/><circle cx="480" cy="155" r="22" fill="#FFB919"/><circle cx="600" cy="155" r="22" fill="#FFB919"/><circle cx="120" cy="220" r="22" fill="#B0B0B0"/><circle cx="240" cy="220" r="22" fill="#B0B0B0"/><circle cx="360" cy="220" r="22" fill="#B0B0B0"/><circle cx="480" cy="220" r="22" fill="#B0B0B0"/><circle cx="600" cy="220" r="22" fill="#B0B0B0"/><circle cx="120" cy="285" r="22" fill="#B0B0B0"/><circle cx="240" cy="285" r="22" fill="#B0B0B0"/><circle cx="360" cy="285" r="22" fill="#B0B0B0"/><circle cx="480" cy="285" r="22" fill="#B0B0B0"/><circle cx="600" cy="285" r="22" fill="#B0B0B0"/></svg>