<svg xmlns="http://www.w3.org/2000/svg" viewBox="0 0 720 360" font-family="system-ui, -apple-system, sans-serif">
  <rect width="720" height="360" rx="16" fill="#EBEBEB"/>
  <rect x="30" y="44" width="660" height="140" rx="14" fill="#6541F2"/>
  <rect x="56" y="68" width="220" height="14" rx="7" fill="#FFFFFF" opacity="0.95"/>
  <rect x="56" y="92" width="160" height="10" rx="5" fill="#FFFFFF" opacity="0.65"/>
  <rect x="56" y="138" width="130" height="34" rx="8" fill="#FFFFFF"/>
  <text x="121" y="160" text-anchor="middle" font-size="12" font-weight="700" fill="#6541F2">참여하기 →</text>
  <g>
    <rect x="30" y="200" width="208" height="120" rx="12" fill="#FFFFFF" stroke="#D2D2D2"/>
    <circle cx="62" cy="232" r="14" fill="#F2EEFE"/>
    <text x="62" y="237" text-anchor="middle" font-size="14" font-weight="700" fill="#6541F2">1</text>
    <rect x="84" y="225" width="120" height="10" rx="5" fill="#5A5A5A"/>
    <rect x="50" y="256" width="160" height="8" rx="4" fill="#B0B0B0"/>
    <rect x="50" y="272" width="130" height="8" rx="4" fill="#B0B0B0"/>
  </g>
  <g>
    <rect x="256" y="200" width="208" height="120" rx="12" fill="#FFFFFF" stroke="#D2D2D2"/>
    <circle cx="288" cy="232" r="14" fill="#F2EEFE"/>
    <text x="288" y="237" text-anchor="middle" font-size="14" font-weight="700" fill="#6541F2">2</text>
    <rect x="310" y="225" width="120" height="10" rx="5" fill="#5A5A5A"/>
    <rect x="276" y="256" width="160" height="8" rx="4" fill="#B0B0B0"/>
    <rect x="276" y="272" width="130" height="8" rx="4" fill="#B0B0B0"/>
  </g>
  <g>
    <rect x="482" y="200" width="208" height="120" rx="12" fill="#FFFFFF" stroke="#D2D2D2"/>
    <circle cx="514" cy="232" r="14" fill="#F2EEFE"/>
    <text x="514" y="237" text-anchor="middle" font-size="14" font-weight="700" fill="#6541F2">3</text>
    <rect x="536" y="225" width="120" height="10" rx="5" fill="#5A5A5A"/>
    <rect x="502" y="256" width="160" height="8" rx="4" fill="#B0B0B0"/>
    <rect x="502" y="272" width="130" height="8" rx="4" fill="#B0B0B0"/>
  </g>
  <rect x="0" y="0" width="720" height="24" fill="#6541F2"/>
  <text x="14" y="16" font-size="11" font-weight="700" fill="#FFFFFF" letter-spacing="1">PLACEHOLDER — 이벤트 페이지 본인 작업 캡처로 교체</text>
</svg>
