<svg xmlns="http://www.w3.org/2000/svg" viewBox="0 0 720 360"><rect x="0" y="0" width="720" height="360" rx="16" fill="#EBEBEB"/><line x1="360" y1="50" x2="360" y2="310" stroke="#D2D2D2" stroke-width="2" stroke-dasharray="6 8"/><rect x="70" y="70" width="200" height="22" rx="6" fill="#B0B0B0"/><rect x="70" y="108" width="200" height="22" rx="6" fill="#B0B0B0"/><rect x="70" y="146" width="200" height="22" rx="6" fill="#B0B0B0"/><rect x="70" y="184" width="200" height="22" rx="6" fill="#B0B0B0"/><rect x="70" y="222" width="200" height="22" rx="6" fill="#B0B0B0"/><rect x="70" y="260" width="200" height="22" rx="6" fill="#B0B0B0"/><line x1="150" y1="320" x2="170" y2="340" stroke="#5A5A5A" stroke-width="5"/><line x1="170" y1="320" x2="150" y2="340" stroke="#5A5A5A" stroke-width="5"/><rect x="450" y="70" width="200" height="22" rx="6" fill="#B0B0B0"/><rect x="450" y="108" width="200" height="22" rx="6" fill="#B0B0B0"/><rect x="450" y="146" width="200" height="22" rx="6" fill="#B0B0B0"/><rect x="450" y="210" width="200" height="22" rx="6" fill="#B0B0B0"/><rect x="450" y="248" width="200" height="22" rx="6" fill="#B0B0B0"/><rect x="450" y="286" width="200" height="22" rx="6" fill="#B0B0B0"/><polyline points="540,322 552,338 575,312" fill="none" stroke="#FFB919" stroke-width="6" stroke-linecap="round" stroke-linejoin="round"/></svg>