<svg xmlns="http://www.w3.org/2000/svg" viewBox="0 0 880 460" font-family="system-ui, -apple-system, 'Segoe UI', Roboto, sans-serif"><rect width="880" height="460" rx="20" fill="#EBEBEB"/><text x="40" y="50" font-size="14" font-weight="700" fill="#707070">카드 내부 패딩 vs 카드 간 gap — 비율로 묶음 결정</text><text x="40" y="90" font-size="12" fill="#8C8C8C">✗ 내부 패딩 > 카드 간 gap — 카드들이 한 덩어리로 보임</text><rect x="60" y="120" width="44" height="80" rx="6" fill="#FFFFFF" stroke="#D2D2D2"/><rect x="66" y="128" width="32" height="8" rx="4" fill="#5A5A5A"/><rect x="66" y="142" width="32" height="6" rx="3" fill="#B0B0B0"/><rect x="120" y="120" width="44" height="80" rx="6" fill="#FFFFFF" stroke="#D2D2D2"/><rect x="126" y="128" width="32" height="8" rx="4" fill="#5A5A5A"/><rect x="126" y="142" width="32" height="6" rx="3" fill="#B0B0B0"/><rect x="180" y="120" width="44" height="80" rx="6" fill="#FFFFFF" stroke="#D2D2D2"/><rect x="186" y="128" width="32" height="8" rx="4" fill="#5A5A5A"/><rect x="186" y="142" width="32" height="6" rx="3" fill="#B0B0B0"/><text x="40" y="220" font-size="12" fill="#8C8C8C">내부 28px, 카드 간 16px — 어디까지가 한 카드인지 모호</text><text x="440" y="90" font-size="12" fill="#8C8C8C">✓ 내부 패딩 < 카드 간 gap — 카드가 분리되어 보임</text><rect x="460" y="120" width="68" height="80" rx="6" fill="#FFFFFF" stroke="#D2D2D2"/><rect x="470" y="128" width="48" height="8" rx="4" fill="#5A5A5A"/><rect x="470" y="144" width="48" height="6" rx="3" fill="#B0B0B0"/><rect x="560" y="120" width="68" height="80" rx="6" fill="#FFFFFF" stroke="#D2D2D2"/><rect x="570" y="128" width="48" height="8" rx="4" fill="#5A5A5A"/><rect x="570" y="144" width="48" height="6" rx="3" fill="#B0B0B0"/><rect x="660" y="120" width="68" height="80" rx="6" fill="#FFFFFF" stroke="#D2D2D2"/><rect x="670" y="128" width="48" height="8" rx="4" fill="#5A5A5A"/><rect x="670" y="144" width="48" height="6" rx="3" fill="#B0B0B0"/><text x="440" y="220" font-size="12" fill="#8C8C8C">내부 12px, 카드 간 32px (2:5 비율) — 카드 단위 명확</text><text x="40" y="410" font-size="12" fill="#8C8C8C">→ 카드 내부 패딩 16–24px / 카드 간 gap 24–32px — 비율 1 : 1.3+ 권장</text></svg>