<svg xmlns="http://www.w3.org/2000/svg" viewBox="0 0 880 460" font-family="system-ui, -apple-system, 'Segoe UI', Roboto, sans-serif"><rect width="880" height="460" rx="20" fill="#EBEBEB"/><text x="60" y="50" font-size="14" font-weight="700" fill="#707070">✗ 모호한 간격</text><text x="60" y="110" font-size="13" fill="#8C8C8C">이메일</text><rect x="60" y="134" width="320" height="32" rx="8" fill="#FFFFFF" stroke="#D2D2D2"/><text x="60" y="190" font-size="13" fill="#8C8C8C">비밀번호</text><rect x="60" y="214" width="320" height="32" rx="8" fill="#FFFFFF" stroke="#D2D2D2"/><text x="60" y="270" font-size="13" fill="#8C8C8C">이름</text><rect x="60" y="294" width="320" height="32" rx="8" fill="#FFFFFF" stroke="#D2D2D2"/><text x="60" y="350" font-size="13" fill="#8C8C8C">전화번호</text><rect x="60" y="374" width="320" height="32" rx="8" fill="#FFFFFF" stroke="#D2D2D2"/><text x="500" y="50" font-size="14" font-weight="700" fill="#707070">✓ 라벨 붙임 + 섹션 분리</text><text x="500" y="110" font-size="13" font-weight="700" fill="#6541F2">계정</text><text x="500" y="132" font-size="13" font-weight="600" fill="#5A5A5A">이메일</text><rect x="500" y="138" width="320" height="32" rx="8" fill="#FFFFFF" stroke="#B0B0B0"/><text x="500" y="192" font-size="13" font-weight="600" fill="#5A5A5A">비밀번호</text><rect x="500" y="198" width="320" height="32" rx="8" fill="#FFFFFF" stroke="#B0B0B0"/><text x="500" y="286" font-size="13" font-weight="700" fill="#6541F2">프로필</text><text x="500" y="308" font-size="13" font-weight="600" fill="#5A5A5A">이름</text><rect x="500" y="314" width="320" height="32" rx="8" fill="#FFFFFF" stroke="#B0B0B0"/><text x="500" y="368" font-size="13" font-weight="600" fill="#5A5A5A">전화번호</text><rect x="500" y="374" width="320" height="32" rx="8" fill="#FFFFFF" stroke="#B0B0B0"/></svg>