<svg xmlns="http://www.w3.org/2000/svg" viewBox="0 0 880 460" font-family="system-ui, -apple-system, 'Segoe UI', Roboto, sans-serif"><rect width="880" height="460" rx="20" fill="#EBEBEB"/><text x="40" y="50" font-size="14" font-weight="700" fill="#707070">상태 색 매핑 — 시스템 전체에서 1:1 고정</text><text x="40" y="128" font-size="14" font-weight="700" fill="#5A5A5A">성공</text><rect x="120" y="110" width="72" height="32" rx="16" fill="#1F9D55"/><text x="156" y="131" text-anchor="middle" font-size="12" font-weight="700" fill="#FFFFFF">성공</text><circle cx="240" cy="126" r="6" fill="#1F9D55"/><text x="256" y="131" font-size="12" fill="#5A5A5A">처리 완료</text><rect x="440" y="110" width="380" height="32" rx="8" fill="#1F9D55" opacity="0.12" stroke="#1F9D55" stroke-width="1.5"/><circle cx="460" cy="126" r="6" fill="#1F9D55"/><text x="478" y="131" font-size="12" font-weight="600" fill="#1F9D55">성공</text><text x="510" y="131" font-size="12" fill="#5A5A5A">— 처리 완료</text><text x="40" y="198" font-size="14" font-weight="700" fill="#5A5A5A">정보</text><rect x="120" y="180" width="72" height="32" rx="16" fill="#3B82F6"/><text x="156" y="201" text-anchor="middle" font-size="12" font-weight="700" fill="#FFFFFF">정보</text><circle cx="240" cy="196" r="6" fill="#3B82F6"/><text x="256" y="201" font-size="12" fill="#5A5A5A">안내</text><rect x="440" y="180" width="380" height="32" rx="8" fill="#3B82F6" opacity="0.12" stroke="#3B82F6" stroke-width="1.5"/><circle cx="460" cy="196" r="6" fill="#3B82F6"/><text x="478" y="201" font-size="12" font-weight="600" fill="#3B82F6">정보</text><text x="510" y="201" font-size="12" fill="#5A5A5A">— 안내</text><text x="40" y="268" font-size="14" font-weight="700" fill="#5A5A5A">경고</text><rect x="120" y="250" width="72" height="32" rx="16" fill="#D97706"/><text x="156" y="271" text-anchor="middle" font-size="12" font-weight="700" fill="#FFFFFF">경고</text><circle cx="240" cy="266" r="6" fill="#D97706"/><text x="256" y="271" font-size="12" fill="#5A5A5A">확인 필요</text><rect x="440" y="250" width="380" height="32" rx="8" fill="#D97706" opacity="0.12" stroke="#D97706" stroke-width="1.5"/><circle cx="460" cy="266" r="6" fill="#D97706"/><text x="478" y="271" font-size="12" font-weight="600" fill="#D97706">경고</text><text x="510" y="271" font-size="12" fill="#5A5A5A">— 확인 필요</text><text x="40" y="338" font-size="14" font-weight="700" fill="#5A5A5A">오류</text><rect x="120" y="320" width="72" height="32" rx="16" fill="#C53434"/><text x="156" y="341" text-anchor="middle" font-size="12" font-weight="700" fill="#FFFFFF">오류</text><circle cx="240" cy="336" r="6" fill="#C53434"/><text x="256" y="341" font-size="12" fill="#5A5A5A">처리 실패</text><rect x="440" y="320" width="380" height="32" rx="8" fill="#C53434" opacity="0.12" stroke="#C53434" stroke-width="1.5"/><circle cx="460" cy="336" r="6" fill="#C53434"/><text x="478" y="341" font-size="12" font-weight="600" fill="#C53434">오류</text><text x="510" y="341" font-size="12" fill="#5A5A5A">— 처리 실패</text><text x="40" y="410" font-size="12" fill="#8C8C8C">→ 같은 의미는 항상 같은 색. badge·dot·banner 등 모양은 달라도 색 매핑은 고정</text></svg>