<svg xmlns="http://www.w3.org/2000/svg" viewBox="0 0 880 460" font-family="system-ui, -apple-system, 'Segoe UI', Roboto, sans-serif"><rect width="880" height="460" rx="20" fill="#EBEBEB"/><text x="40" y="50" font-size="14" font-weight="700" fill="#707070">버튼 위계 4단계 — 같은 종류는 같은 형태 (유사성)</text><text x="40" y="108" font-size="13" font-weight="700" fill="#5A5A5A">Primary</text><text x="40" y="128" font-size="11" fill="#8C8C8C">주요 액션 1개</text><rect x="280" y="92" width="160" height="42" rx="10" fill="#6541F2"/><text x="360" y="118" text-anchor="middle" font-size="13" font-weight="700" fill="#FFFFFF">실행</text><rect x="500" y="92" width="100" height="42" rx="10" fill="#6541F2"/><text x="550" y="118" text-anchor="middle" font-size="12" font-weight="600" fill="#FFFFFF">저장</text><rect x="620" y="92" width="100" height="42" rx="10" fill="#6541F2"/><text x="670" y="118" text-anchor="middle" font-size="12" font-weight="600" fill="#FFFFFF">삭제</text><rect x="740" y="92" width="100" height="42" rx="10" fill="#6541F2"/><text x="790" y="118" text-anchor="middle" font-size="12" font-weight="600" fill="#FFFFFF">복사</text><text x="40" y="178" font-size="13" font-weight="700" fill="#5A5A5A">Secondary</text><text x="40" y="198" font-size="11" fill="#8C8C8C">보조 액션 1–2개</text><rect x="280" y="162" width="160" height="42" rx="10" fill="#FFFFFF" stroke="#B0B0B0" stroke-width="1.5"/><text x="360" y="188" text-anchor="middle" font-size="13" font-weight="700" fill="#5A5A5A">실행</text><rect x="500" y="162" width="100" height="42" rx="10" fill="#FFFFFF" stroke="#B0B0B0" stroke-width="1.5"/><text x="550" y="188" text-anchor="middle" font-size="12" font-weight="600" fill="#5A5A5A">저장</text><rect x="620" y="162" width="100" height="42" rx="10" fill="#FFFFFF" stroke="#B0B0B0" stroke-width="1.5"/><text x="670" y="188" text-anchor="middle" font-size="12" font-weight="600" fill="#5A5A5A">삭제</text><rect x="740" y="162" width="100" height="42" rx="10" fill="#FFFFFF" stroke="#B0B0B0" stroke-width="1.5"/><text x="790" y="188" text-anchor="middle" font-size="12" font-weight="600" fill="#5A5A5A">복사</text><text x="40" y="248" font-size="13" font-weight="700" fill="#5A5A5A">Tertiary</text><text x="40" y="268" font-size="11" fill="#8C8C8C">약한 강조</text><rect x="280" y="232" width="160" height="42" rx="10" fill="#F2EEFE"/><text x="360" y="258" text-anchor="middle" font-size="13" font-weight="700" fill="#6541F2">실행</text><rect x="500" y="232" width="100" height="42" rx="10" fill="#F2EEFE"/><text x="550" y="258" text-anchor="middle" font-size="12" font-weight="600" fill="#6541F2">저장</text><rect x="620" y="232" width="100" height="42" rx="10" fill="#F2EEFE"/><text x="670" y="258" text-anchor="middle" font-size="12" font-weight="600" fill="#6541F2">삭제</text><rect x="740" y="232" width="100" height="42" rx="10" fill="#F2EEFE"/><text x="790" y="258" text-anchor="middle" font-size="12" font-weight="600" fill="#6541F2">복사</text><text x="40" y="318" font-size="13" font-weight="700" fill="#5A5A5A">Ghost</text><text x="40" y="338" font-size="11" fill="#8C8C8C">최소 강조 / 취소</text><text x="360" y="328" text-anchor="middle" font-size="13" font-weight="700" fill="#8C8C8C">실행</text><text x="550" y="328" text-anchor="middle" font-size="12" font-weight="600" fill="#8C8C8C">저장</text><text x="670" y="328" text-anchor="middle" font-size="12" font-weight="600" fill="#8C8C8C">삭제</text><text x="790" y="328" text-anchor="middle" font-size="12" font-weight="600" fill="#8C8C8C">복사</text></svg>