<svg xmlns="http://www.w3.org/2000/svg" viewBox="0 0 880 470" font-family="system-ui, -apple-system, 'Segoe UI', Roboto, sans-serif"><rect width="880" height="470" rx="20" fill="#EBEBEB"/><text x="40" y="50" font-size="14" font-weight="700" fill="#707070">Z-패턴 — 시각 요소가 많은 페이지의 시선 동선</text><rect x="40" y="90" width="800" height="320" rx="12" fill="#FFFFFF" stroke="#D2D2D2"/><circle cx="80" cy="120" r="14" fill="#6541F2"/><rect x="100" y="113" width="60" height="14" rx="4" fill="#5A5A5A"/><rect x="600" y="116" width="40" height="8" rx="4" fill="#B0B0B0"/><rect x="646" y="116" width="40" height="8" rx="4" fill="#B0B0B0"/><rect x="692" y="116" width="50" height="8" rx="4" fill="#B0B0B0"/><rect x="752" y="106" width="64" height="28" rx="8" fill="#6541F2"/><text x="784" y="124" text-anchor="middle" font-size="11" font-weight="700" fill="#FFFFFF">가입</text><rect x="80" y="180" width="320" height="24" rx="4" fill="#5A5A5A"/><rect x="80" y="216" width="280" height="10" rx="4" fill="#B0B0B0"/><rect x="80" y="234" width="240" height="10" rx="4" fill="#B0B0B0"/><rect x="500" y="170" width="280" height="140" rx="10" fill="#D2D2D2"/><rect x="80" y="350" width="180" height="10" rx="4" fill="#B0B0B0"/><rect x="80" y="368" width="140" height="10" rx="4" fill="#B0B0B0"/><rect x="630" y="346" width="160" height="44" rx="10" fill="#6541F2"/><text x="710" y="374" text-anchor="middle" font-size="13" font-weight="700" fill="#FFFFFF">시작하기 →</text><rect x="60" y="100" width="780" height="38" rx="4" fill="#6541F2" opacity="0.18"/><path d="M780 140 L100 340" stroke="#6541F2" stroke-width="22" stroke-linecap="round" opacity="0.16"/><rect x="60" y="338" width="780" height="38" rx="4" fill="#6541F2" opacity="0.18"/><circle cx="80" cy="120" r="13" fill="#6541F2"/><text x="80" y="124" text-anchor="middle" font-size="12" font-weight="700" fill="#FFFFFF">①</text><circle cx="784" cy="120" r="13" fill="#6541F2"/><text x="784" y="124" text-anchor="middle" font-size="12" font-weight="700" fill="#FFFFFF">②</text><circle cx="80" cy="357" r="13" fill="#6541F2"/><text x="80" y="361" text-anchor="middle" font-size="12" font-weight="700" fill="#FFFFFF">③</text><circle cx="710" cy="368" r="13" fill="#6541F2"/><text x="710" y="372" text-anchor="middle" font-size="12" font-weight="700" fill="#FFFFFF">④</text><text x="100" y="160" font-size="11" font-weight="700" fill="#6541F2">로고</text><text x="730" y="160" font-size="11" font-weight="700" fill="#6541F2">상단 CTA</text><text x="100" y="395" font-size="11" font-weight="700" fill="#6541F2">서브 정보</text><text x="640" y="408" font-size="11" font-weight="700" fill="#6541F2">메인 CTA</text><text x="40" y="440" font-size="12" fill="#8C8C8C">→ 시각 요소 위주 페이지에서는 ①로고 → ②상단 CTA → ③서브 정보 → ④메인 CTA의 대각선 동선이 형성됨</text></svg>