<svg xmlns="http://www.w3.org/2000/svg" viewBox="0 0 880 470" font-family="system-ui, -apple-system, 'Segoe UI', Roboto, sans-serif"><rect width="880" height="470" rx="20" fill="#EBEBEB"/><text x="40" y="50" font-size="14" font-weight="700" fill="#707070">F-패턴 — 텍스트 중심 페이지의 시선 동선</text><rect x="40" y="90" width="800" height="320" rx="12" fill="#FFFFFF" stroke="#D2D2D2"/><rect x="60" y="110" width="280" height="16" rx="8" fill="#5A5A5A"/><rect x="60" y="150" width="760" height="8" rx="4" fill="#B0B0B0"/><rect x="60" y="168" width="700" height="8" rx="4" fill="#B0B0B0"/><rect x="60" y="186" width="720" height="8" rx="4" fill="#B0B0B0"/><rect x="60" y="204" width="640" height="8" rx="4" fill="#B0B0B0"/><rect x="60" y="238" width="560" height="8" rx="4" fill="#B0B0B0"/><rect x="60" y="256" width="520" height="8" rx="4" fill="#B0B0B0"/><rect x="60" y="274" width="480" height="8" rx="4" fill="#B0B0B0"/><rect x="60" y="292" width="440" height="8" rx="4" fill="#B0B0B0"/><rect x="60" y="326" width="440" height="8" rx="4" fill="#B0B0B0"/><rect x="60" y="344" width="400" height="8" rx="4" fill="#B0B0B0"/><rect x="60" y="362" width="360" height="8" rx="4" fill="#B0B0B0"/><rect x="60" y="106" width="780" height="32" rx="4" fill="#6541F2" opacity="0.20"/><rect x="60" y="170" width="540" height="22" rx="4" fill="#6541F2" opacity="0.15"/><rect x="60" y="138" width="160" height="240" rx="4" fill="#6541F2" opacity="0.10"/><text x="650" y="130" font-size="11" font-weight="700" fill="#6541F2">① 헤드라인</text><text x="650" y="186" font-size="11" font-weight="700" fill="#6541F2">② 첫 단락 첫 줄</text><text x="650" y="280" font-size="11" font-weight="700" fill="#6541F2">③ 좌측 시선 트랙</text><text x="40" y="440" font-size="12" fill="#8C8C8C">→ 헤드라인과 좌측 정렬 콘텐츠의 처음 단어가 가장 많이 읽힘 (NN/g eye-tracking)</text></svg>