<svg xmlns="http://www.w3.org/2000/svg" viewBox="0 0 880 460" font-family="system-ui, -apple-system, 'Segoe UI', Roboto, sans-serif"><rect width="880" height="460" rx="20" fill="#EBEBEB"/><text x="40" y="50" font-size="14" font-weight="700" fill="#707070">이미지 위 텍스트 — scrim으로 figure-ground 보강</text><text x="40" y="90" font-size="12" fill="#8C8C8C">✗ scrim 없음 — 텍스트 묻힘</text><rect x="40" y="110" width="380" height="240" rx="10" fill="#B0B0B0"/><rect x="40" y="110" width="4" height="240" fill="#8C8C8C" opacity="0.5"/><rect x="48" y="110" width="4" height="240" fill="#8C8C8C" opacity="0.5"/><rect x="56" y="110" width="4" height="240" fill="#8C8C8C" opacity="0.5"/><rect x="64" y="110" width="4" height="240" fill="#8C8C8C" opacity="0.5"/><rect x="72" y="110" width="4" height="240" fill="#8C8C8C" opacity="0.5"/><rect x="80" y="110" width="4" height="240" fill="#8C8C8C" opacity="0.5"/><rect x="88" y="110" width="4" height="240" fill="#8C8C8C" opacity="0.5"/><rect x="96" y="110" width="4" height="240" fill="#8C8C8C" opacity="0.5"/><rect x="104" y="110" width="4" height="240" fill="#8C8C8C" opacity="0.5"/><rect x="112" y="110" width="4" height="240" fill="#8C8C8C" opacity="0.5"/><rect x="120" y="110" width="4" height="240" fill="#8C8C8C" opacity="0.5"/><rect x="128" y="110" width="4" height="240" fill="#8C8C8C" opacity="0.5"/><rect x="136" y="110" width="4" height="240" fill="#8C8C8C" opacity="0.5"/><rect x="144" y="110" width="4" height="240" fill="#8C8C8C" opacity="0.5"/><rect x="152" y="110" width="4" height="240" fill="#8C8C8C" opacity="0.5"/><rect x="160" y="110" width="4" height="240" fill="#8C8C8C" opacity="0.5"/><rect x="168" y="110" width="4" height="240" fill="#8C8C8C" opacity="0.5"/><rect x="176" y="110" width="4" height="240" fill="#8C8C8C" opacity="0.5"/><rect x="184" y="110" width="4" height="240" fill="#8C8C8C" opacity="0.5"/><rect x="192" y="110" width="4" height="240" fill="#8C8C8C" opacity="0.5"/><rect x="200" y="110" width="4" height="240" fill="#8C8C8C" opacity="0.5"/><rect x="208" y="110" width="4" height="240" fill="#8C8C8C" opacity="0.5"/><rect x="216" y="110" width="4" height="240" fill="#8C8C8C" opacity="0.5"/><rect x="224" y="110" width="4" height="240" fill="#8C8C8C" opacity="0.5"/><rect x="232" y="110" width="4" height="240" fill="#8C8C8C" opacity="0.5"/><rect x="240" y="110" width="4" height="240" fill="#8C8C8C" opacity="0.5"/><rect x="248" y="110" width="4" height="240" fill="#8C8C8C" opacity="0.5"/><rect x="256" y="110" width="4" height="240" fill="#8C8C8C" opacity="0.5"/><rect x="264" y="110" width="4" height="240" fill="#8C8C8C" opacity="0.5"/><rect x="272" y="110" width="4" height="240" fill="#8C8C8C" opacity="0.5"/><rect x="280" y="110" width="4" height="240" fill="#8C8C8C" opacity="0.5"/><rect x="288" y="110" width="4" height="240" fill="#8C8C8C" opacity="0.5"/><rect x="296" y="110" width="4" height="240" fill="#8C8C8C" opacity="0.5"/><rect x="304" y="110" width="4" height="240" fill="#8C8C8C" opacity="0.5"/><rect x="312" y="110" width="4" height="240" fill="#8C8C8C" opacity="0.5"/><rect x="320" y="110" width="4" height="240" fill="#8C8C8C" opacity="0.5"/><rect x="328" y="110" width="4" height="240" fill="#8C8C8C" opacity="0.5"/><rect x="336" y="110" width="4" height="240" fill="#8C8C8C" opacity="0.5"/><rect x="344" y="110" width="4" height="240" fill="#8C8C8C" opacity="0.5"/><rect x="352" y="110" width="4" height="240" fill="#8C8C8C" opacity="0.5"/><rect x="360" y="110" width="4" height="240" fill="#8C8C8C" opacity="0.5"/><rect x="368" y="110" width="4" height="240" fill="#8C8C8C" opacity="0.5"/><rect x="376" y="110" width="4" height="240" fill="#8C8C8C" opacity="0.5"/><rect x="384" y="110" width="4" height="240" fill="#8C8C8C" opacity="0.5"/><rect x="392" y="110" width="4" height="240" fill="#8C8C8C" opacity="0.5"/><rect x="400" y="110" width="4" height="240" fill="#8C8C8C" opacity="0.5"/><rect x="408" y="110" width="4" height="240" fill="#8C8C8C" opacity="0.5"/><rect x="416" y="110" width="4" height="240" fill="#8C8C8C" opacity="0.5"/><text x="60" y="170" font-size="22" font-weight="800" fill="#FFFFFF" opacity="0.6">캠페인 시작</text><text x="60" y="200" font-size="13" fill="#FFFFFF" opacity="0.6">매주 화요일 추첨</text><rect x="60" y="240" width="120" height="36" rx="8" fill="#FFFFFF" opacity="0.5"/><text x="120" y="263" text-anchor="middle" font-size="12" font-weight="700" fill="#5A5A5A" opacity="0.6">자세히 →</text><text x="440" y="90" font-size="12" fill="#8C8C8C">✓ 그라디언트 scrim — 텍스트 영역만 어둡게</text><rect x="440" y="110" width="380" height="240" rx="10" fill="#B0B0B0"/><rect x="440" y="110" width="4" height="240" fill="#8C8C8C" opacity="0.5"/><rect x="448" y="110" width="4" height="240" fill="#8C8C8C" opacity="0.5"/><rect x="456" y="110" width="4" height="240" fill="#8C8C8C" opacity="0.5"/><rect x="464" y="110" width="4" height="240" fill="#8C8C8C" opacity="0.5"/><rect x="472" y="110" width="4" height="240" fill="#8C8C8C" opacity="0.5"/><rect x="480" y="110" width="4" height="240" fill="#8C8C8C" opacity="0.5"/><rect x="488" y="110" width="4" height="240" fill="#8C8C8C" opacity="0.5"/><rect x="496" y="110" width="4" height="240" fill="#8C8C8C" opacity="0.5"/><rect x="504" y="110" width="4" height="240" fill="#8C8C8C" opacity="0.5"/><rect x="512" y="110" width="4" height="240" fill="#8C8C8C" opacity="0.5"/><rect x="520" y="110" width="4" height="240" fill="#8C8C8C" opacity="0.5"/><rect x="528" y="110" width="4" height="240" fill="#8C8C8C" opacity="0.5"/><rect x="536" y="110" width="4" height="240" fill="#8C8C8C" opacity="0.5"/><rect x="544" y="110" width="4" height="240" fill="#8C8C8C" opacity="0.5"/><rect x="552" y="110" width="4" height="240" fill="#8C8C8C" opacity="0.5"/><rect x="560" y="110" width="4" height="240" fill="#8C8C8C" opacity="0.5"/><rect x="568" y="110" width="4" height="240" fill="#8C8C8C" opacity="0.5"/><rect x="576" y="110" width="4" height="240" fill="#8C8C8C" opacity="0.5"/><rect x="584" y="110" width="4" height="240" fill="#8C8C8C" opacity="0.5"/><rect x="592" y="110" width="4" height="240" fill="#8C8C8C" opacity="0.5"/><rect x="600" y="110" width="4" height="240" fill="#8C8C8C" opacity="0.5"/><rect x="608" y="110" width="4" height="240" fill="#8C8C8C" opacity="0.5"/><rect x="616" y="110" width="4" height="240" fill="#8C8C8C" opacity="0.5"/><rect x="624" y="110" width="4" height="240" fill="#8C8C8C" opacity="0.5"/><rect x="632" y="110" width="4" height="240" fill="#8C8C8C" opacity="0.5"/><rect x="640" y="110" width="4" height="240" fill="#8C8C8C" opacity="0.5"/><rect x="648" y="110" width="4" height="240" fill="#8C8C8C" opacity="0.5"/><rect x="656" y="110" width="4" height="240" fill="#8C8C8C" opacity="0.5"/><rect x="664" y="110" width="4" height="240" fill="#8C8C8C" opacity="0.5"/><rect x="672" y="110" width="4" height="240" fill="#8C8C8C" opacity="0.5"/><rect x="680" y="110" width="4" height="240" fill="#8C8C8C" opacity="0.5"/><rect x="688" y="110" width="4" height="240" fill="#8C8C8C" opacity="0.5"/><rect x="696" y="110" width="4" height="240" fill="#8C8C8C" opacity="0.5"/><rect x="704" y="110" width="4" height="240" fill="#8C8C8C" opacity="0.5"/><rect x="712" y="110" width="4" height="240" fill="#8C8C8C" opacity="0.5"/><rect x="720" y="110" width="4" height="240" fill="#8C8C8C" opacity="0.5"/><rect x="728" y="110" width="4" height="240" fill="#8C8C8C" opacity="0.5"/><rect x="736" y="110" width="4" height="240" fill="#8C8C8C" opacity="0.5"/><rect x="744" y="110" width="4" height="240" fill="#8C8C8C" opacity="0.5"/><rect x="752" y="110" width="4" height="240" fill="#8C8C8C" opacity="0.5"/><rect x="760" y="110" width="4" height="240" fill="#8C8C8C" opacity="0.5"/><rect x="768" y="110" width="4" height="240" fill="#8C8C8C" opacity="0.5"/><rect x="776" y="110" width="4" height="240" fill="#8C8C8C" opacity="0.5"/><rect x="784" y="110" width="4" height="240" fill="#8C8C8C" opacity="0.5"/><rect x="792" y="110" width="4" height="240" fill="#8C8C8C" opacity="0.5"/><rect x="800" y="110" width="4" height="240" fill="#8C8C8C" opacity="0.5"/><rect x="808" y="110" width="4" height="240" fill="#8C8C8C" opacity="0.5"/><rect x="816" y="110" width="4" height="240" fill="#8C8C8C" opacity="0.5"/><defs><linearGradient id="scrim" x1="0" y1="1" x2="0" y2="0"><stop offset="0" stop-color="#000" stop-opacity="0.7"/><stop offset="0.6" stop-color="#000" stop-opacity="0.3"/><stop offset="1" stop-color="#000" stop-opacity="0"/></linearGradient></defs><rect x="440" y="110" width="380" height="240" rx="10" fill="url(#scrim)"/><text x="460" y="260" font-size="22" font-weight="800" fill="#FFFFFF">캠페인 시작</text><text x="460" y="285" font-size="13" fill="#FFFFFF">매주 화요일 추첨</text><rect x="460" y="305" width="120" height="36" rx="8" fill="#6541F2"/><text x="520" y="328" text-anchor="middle" font-size="12" font-weight="700" fill="#FFFFFF">자세히 →</text><text x="40" y="410" font-size="12" fill="#8C8C8C">→ 텍스트가 놓일 영역만 어둡게 처리 — 이미지 인지는 유지하면서 가독성 확보</text></svg>