<svg xmlns="http://www.w3.org/2000/svg" viewBox="0 0 880 460" font-family="system-ui, -apple-system, 'Segoe UI', Roboto, sans-serif"><rect width="880" height="460" rx="20" fill="#EBEBEB"/><text x="40" y="50" font-size="14" font-weight="700" fill="#707070">드래그 다중선택 — 함께 움직이면 한 그룹</text><text x="40" y="90" font-size="12" fill="#8C8C8C">[프레임 A] 다중 선택 영역 드래그</text><rect x="60" y="130" width="56" height="56" rx="6" fill="#F2EEFE" stroke="#6541F2" stroke-width="2"/><rect x="130" y="130" width="56" height="56" rx="6" fill="#F2EEFE" stroke="#6541F2" stroke-width="2"/><rect x="200" y="130" width="56" height="56" rx="6" fill="#FFFFFF" stroke="#D2D2D2" stroke-width="1"/><rect x="60" y="200" width="56" height="56" rx="6" fill="#F2EEFE" stroke="#6541F2" stroke-width="2"/><rect x="130" y="200" width="56" height="56" rx="6" fill="#F2EEFE" stroke="#6541F2" stroke-width="2"/><rect x="200" y="200" width="56" height="56" rx="6" fill="#FFFFFF" stroke="#D2D2D2" stroke-width="1"/><rect x="60" y="270" width="56" height="56" rx="6" fill="#FFFFFF" stroke="#D2D2D2" stroke-width="1"/><rect x="130" y="270" width="56" height="56" rx="6" fill="#FFFFFF" stroke="#D2D2D2" stroke-width="1"/><rect x="200" y="270" width="56" height="56" rx="6" fill="#FFFFFF" stroke="#D2D2D2" stroke-width="1"/><rect x="58" y="128" width="142" height="142" rx="4" fill="none" stroke="#6541F2" stroke-width="2" stroke-dasharray="5 4"/><text x="440" y="90" font-size="12" fill="#8C8C8C">[프레임 B] 함께 드래그 → 한 묶음으로 인지</text><rect x="484" y="154" width="56" height="56" rx="6" fill="#F2EEFE" stroke="#6541F2" stroke-width="2"/><rect x="554" y="154" width="56" height="56" rx="6" fill="#F2EEFE" stroke="#6541F2" stroke-width="2"/><rect x="600" y="130" width="56" height="56" rx="6" fill="#FFFFFF" stroke="#D2D2D2" stroke-width="1"/><rect x="484" y="224" width="56" height="56" rx="6" fill="#F2EEFE" stroke="#6541F2" stroke-width="2"/><rect x="554" y="224" width="56" height="56" rx="6" fill="#F2EEFE" stroke="#6541F2" stroke-width="2"/><rect x="600" y="200" width="56" height="56" rx="6" fill="#FFFFFF" stroke="#D2D2D2" stroke-width="1"/><rect x="460" y="270" width="56" height="56" rx="6" fill="#FFFFFF" stroke="#D2D2D2" stroke-width="1"/><rect x="530" y="270" width="56" height="56" rx="6" fill="#FFFFFF" stroke="#D2D2D2" stroke-width="1"/><rect x="600" y="270" width="56" height="56" rx="6" fill="#FFFFFF" stroke="#D2D2D2" stroke-width="1"/><line x1="534" y1="134" x2="558" y2="158" stroke="#6541F2" stroke-width="2" stroke-dasharray="3 3" opacity="0.5"/><line x1="534" y1="204" x2="558" y2="228" stroke="#6541F2" stroke-width="2" stroke-dasharray="3 3" opacity="0.5"/><line x1="464" y1="134" x2="488" y2="158" stroke="#6541F2" stroke-width="2" stroke-dasharray="3 3" opacity="0.5"/><line x1="464" y1="204" x2="488" y2="228" stroke="#6541F2" stroke-width="2" stroke-dasharray="3 3" opacity="0.5"/><text x="40" y="410" font-size="12" fill="#8C8C8C">→ 동시·동일 방향으로 움직이는 요소는 시각 시스템이 자동으로 한 그룹으로 묶음</text></svg>