<svg xmlns="http://www.w3.org/2000/svg" viewBox="0 0 880 460" font-family="system-ui, -apple-system, 'Segoe UI', Roboto, sans-serif"><rect width="880" height="460" rx="20" fill="#EBEBEB"/><text x="40" y="50" font-size="14" font-weight="700" fill="#707070">Pull to refresh — 콘텐츠가 함께 끌려옴</text><text x="60" y="90" font-size="12" fill="#8C8C8C">[A] 시작 — 손가락 아래로</text><rect x="60" y="110" width="200" height="270" rx="14" fill="#FFFFFF" stroke="#D2D2D2"/><rect x="60" y="110" width="200" height="24" rx="0" fill="#EBEBEB"/><rect x="76" y="145" width="60" height="10" rx="5" fill="#5A5A5A"/><rect x="76" y="161" width="160" height="6" rx="3" fill="#B0B0B0"/><rect x="76" y="171" width="120" height="6" rx="3" fill="#B0B0B0"/><rect x="76" y="185" width="60" height="10" rx="5" fill="#5A5A5A"/><rect x="76" y="201" width="160" height="6" rx="3" fill="#B0B0B0"/><rect x="76" y="211" width="120" height="6" rx="3" fill="#B0B0B0"/><rect x="76" y="225" width="60" height="10" rx="5" fill="#5A5A5A"/><rect x="76" y="241" width="160" height="6" rx="3" fill="#B0B0B0"/><rect x="76" y="251" width="120" height="6" rx="3" fill="#B0B0B0"/><rect x="76" y="265" width="60" height="10" rx="5" fill="#5A5A5A"/><rect x="76" y="281" width="160" height="6" rx="3" fill="#B0B0B0"/><rect x="76" y="291" width="120" height="6" rx="3" fill="#B0B0B0"/><rect x="76" y="305" width="60" height="10" rx="5" fill="#5A5A5A"/><rect x="76" y="321" width="160" height="6" rx="3" fill="#B0B0B0"/><rect x="76" y="331" width="120" height="6" rx="3" fill="#B0B0B0"/><text x="320" y="90" font-size="12" fill="#8C8C8C">[B] 끌어내림 — 콘텐츠 함께 이동</text><rect x="320" y="110" width="200" height="270" rx="14" fill="#FFFFFF" stroke="#D2D2D2"/><rect x="320" y="110" width="200" height="24" rx="0" fill="#EBEBEB"/><circle cx="420" cy="145" r="14" fill="none" stroke="#6541F2" stroke-width="3" stroke-dasharray="45.0 100"/><rect x="336" y="175" width="60" height="10" rx="5" fill="#5A5A5A"/><rect x="336" y="191" width="160" height="6" rx="3" fill="#B0B0B0"/><rect x="336" y="201" width="120" height="6" rx="3" fill="#B0B0B0"/><rect x="336" y="215" width="60" height="10" rx="5" fill="#5A5A5A"/><rect x="336" y="231" width="160" height="6" rx="3" fill="#B0B0B0"/><rect x="336" y="241" width="120" height="6" rx="3" fill="#B0B0B0"/><rect x="336" y="255" width="60" height="10" rx="5" fill="#5A5A5A"/><rect x="336" y="271" width="160" height="6" rx="3" fill="#B0B0B0"/><rect x="336" y="281" width="120" height="6" rx="3" fill="#B0B0B0"/><rect x="336" y="295" width="60" height="10" rx="5" fill="#5A5A5A"/><rect x="336" y="311" width="160" height="6" rx="3" fill="#B0B0B0"/><rect x="336" y="321" width="120" height="6" rx="3" fill="#B0B0B0"/><rect x="336" y="335" width="60" height="10" rx="5" fill="#5A5A5A"/><rect x="336" y="351" width="160" height="6" rx="3" fill="#B0B0B0"/><rect x="336" y="361" width="120" height="6" rx="3" fill="#B0B0B0"/><text x="580" y="90" font-size="12" fill="#8C8C8C">[C] 임계 → 새로고침 시작</text><rect x="580" y="110" width="200" height="270" rx="14" fill="#FFFFFF" stroke="#D2D2D2"/><rect x="580" y="110" width="200" height="24" rx="0" fill="#EBEBEB"/><circle cx="680" cy="175" r="14" fill="none" stroke="#6541F2" stroke-width="3" stroke-dasharray="90.0 100"/><rect x="596" y="205" width="60" height="10" rx="5" fill="#5A5A5A"/><rect x="596" y="221" width="160" height="6" rx="3" fill="#B0B0B0"/><rect x="596" y="231" width="120" height="6" rx="3" fill="#B0B0B0"/><rect x="596" y="245" width="60" height="10" rx="5" fill="#5A5A5A"/><rect x="596" y="261" width="160" height="6" rx="3" fill="#B0B0B0"/><rect x="596" y="271" width="120" height="6" rx="3" fill="#B0B0B0"/><rect x="596" y="285" width="60" height="10" rx="5" fill="#5A5A5A"/><rect x="596" y="301" width="160" height="6" rx="3" fill="#B0B0B0"/><rect x="596" y="311" width="120" height="6" rx="3" fill="#B0B0B0"/><rect x="596" y="325" width="60" height="10" rx="5" fill="#5A5A5A"/><rect x="596" y="341" width="160" height="6" rx="3" fill="#B0B0B0"/><rect x="596" y="351" width="120" height="6" rx="3" fill="#B0B0B0"/><text x="40" y="410" font-size="12" fill="#8C8C8C">→ 콘텐츠가 손가락과 함께 움직이며 임계점에서 새로고침 트리거 — 자연스러운 메타포</text></svg>