<svg xmlns="http://www.w3.org/2000/svg" viewBox="0 0 880 460" font-family="system-ui, -apple-system, 'Segoe UI', Roboto, sans-serif"><rect width="880" height="460" rx="20" fill="#EBEBEB"/><line x1="440" y1="40" x2="440" y2="420" stroke="#D2D2D2" stroke-width="1" stroke-dasharray="4 6"/><text x="40" y="60" font-size="14" font-weight="700" fill="#C53434">✗ 모호한 간격 — 그룹이 안 보임</text><rect x="40" y="90" width="360" height="34" rx="6" fill="#FFFFFF" stroke="#D2D2D2"/><rect x="58" y="98" width="180" height="10" rx="5" fill="#5A5A5A"/><rect x="58" y="112" width="240" height="6" rx="3" fill="#B0B0B0"/><rect x="40" y="147" width="360" height="34" rx="6" fill="#FFFFFF" stroke="#D2D2D2"/><rect x="58" y="155" width="180" height="10" rx="5" fill="#5A5A5A"/><rect x="58" y="169" width="240" height="6" rx="3" fill="#B0B0B0"/><rect x="40" y="204" width="360" height="34" rx="6" fill="#FFFFFF" stroke="#D2D2D2"/><rect x="58" y="212" width="180" height="10" rx="5" fill="#5A5A5A"/><rect x="58" y="226" width="240" height="6" rx="3" fill="#B0B0B0"/><rect x="40" y="261" width="360" height="34" rx="6" fill="#FFFFFF" stroke="#D2D2D2"/><rect x="58" y="269" width="180" height="10" rx="5" fill="#5A5A5A"/><rect x="58" y="283" width="240" height="6" rx="3" fill="#B0B0B0"/><rect x="40" y="318" width="360" height="34" rx="6" fill="#FFFFFF" stroke="#D2D2D2"/><rect x="58" y="326" width="180" height="10" rx="5" fill="#5A5A5A"/><rect x="58" y="340" width="240" height="6" rx="3" fill="#B0B0B0"/><rect x="40" y="375" width="360" height="34" rx="6" fill="#FFFFFF" stroke="#D2D2D2"/><rect x="58" y="383" width="180" height="10" rx="5" fill="#5A5A5A"/><rect x="58" y="397" width="240" height="6" rx="3" fill="#B0B0B0"/><text x="460" y="60" font-size="14" font-weight="700" fill="#6541F2">✓ 그룹 간격 대비 — 3+3 묶음</text><rect x="460" y="90" width="360" height="34" rx="6" fill="#FFFFFF" stroke="#D2D2D2"/><rect x="478" y="98" width="180" height="10" rx="5" fill="#5A5A5A"/><rect x="478" y="112" width="240" height="6" rx="3" fill="#B0B0B0"/><rect x="460" y="138" width="360" height="34" rx="6" fill="#FFFFFF" stroke="#D2D2D2"/><rect x="478" y="146" width="180" height="10" rx="5" fill="#5A5A5A"/><rect x="478" y="160" width="240" height="6" rx="3" fill="#B0B0B0"/><rect x="460" y="186" width="360" height="34" rx="6" fill="#FFFFFF" stroke="#D2D2D2"/><rect x="478" y="194" width="180" height="10" rx="5" fill="#5A5A5A"/><rect x="478" y="208" width="240" height="6" rx="3" fill="#B0B0B0"/><rect x="460" y="280" width="360" height="34" rx="6" fill="#FFFFFF" stroke="#D2D2D2"/><rect x="478" y="288" width="180" height="10" rx="5" fill="#5A5A5A"/><rect x="478" y="302" width="240" height="6" rx="3" fill="#B0B0B0"/><rect x="460" y="328" width="360" height="34" rx="6" fill="#FFFFFF" stroke="#D2D2D2"/><rect x="478" y="336" width="180" height="10" rx="5" fill="#5A5A5A"/><rect x="478" y="350" width="240" height="6" rx="3" fill="#B0B0B0"/><rect x="460" y="376" width="360" height="34" rx="6" fill="#FFFFFF" stroke="#D2D2D2"/><rect x="478" y="384" width="180" height="10" rx="5" fill="#5A5A5A"/><rect x="478" y="398" width="240" height="6" rx="3" fill="#B0B0B0"/></svg>