<svg xmlns="http://www.w3.org/2000/svg" viewBox="0 0 880 460" font-family="system-ui, -apple-system, 'Segoe UI', Roboto, sans-serif"><rect width="880" height="460" rx="20" fill="#EBEBEB"/><line x1="440" y1="40" x2="440" y2="420" stroke="#D2D2D2" stroke-width="1" stroke-dasharray="4 6"/><text x="40" y="60" font-size="14" font-weight="700" fill="#C53434">✗ 과한 생략 — 형태 인식 실패</text><circle cx="308.6" cy="265.6" r="3" fill="#5A5A5A"/><circle cx="235.6" cy="338.6" r="3" fill="#5A5A5A"/><circle cx="142.1" cy="295.0" r="3" fill="#5A5A5A"/><circle cx="151.1" cy="192.1" r="3" fill="#5A5A5A"/><circle cx="250.8" cy="165.4" r="3" fill="#5A5A5A"/><text x="460" y="60" font-size="14" font-weight="700" fill="#6541F2">✓ 충분한 단서 — 원이 보임</text><circle cx="750.0" cy="250.0" r="6" fill="#5A5A5A"/><circle cx="745.6" cy="277.8" r="6" fill="#5A5A5A"/><circle cx="732.8" cy="302.9" r="6" fill="#5A5A5A"/><circle cx="712.9" cy="322.8" r="6" fill="#5A5A5A"/><circle cx="687.8" cy="335.6" r="6" fill="#5A5A5A"/><circle cx="660.0" cy="340.0" r="6" fill="#5A5A5A"/><circle cx="632.2" cy="335.6" r="6" fill="#5A5A5A"/><circle cx="607.1" cy="322.8" r="6" fill="#5A5A5A"/><circle cx="587.2" cy="302.9" r="6" fill="#5A5A5A"/><circle cx="574.4" cy="277.8" r="6" fill="#5A5A5A"/><circle cx="570.0" cy="250.0" r="6" fill="#5A5A5A"/><circle cx="574.4" cy="222.2" r="6" fill="#5A5A5A"/><circle cx="587.2" cy="197.1" r="6" fill="#5A5A5A"/><circle cx="607.1" cy="177.2" r="6" fill="#5A5A5A"/><circle cx="632.2" cy="164.4" r="6" fill="#5A5A5A"/><circle cx="660.0" cy="160.0" r="6" fill="#5A5A5A"/><circle cx="687.8" cy="164.4" r="6" fill="#5A5A5A"/><circle cx="712.9" cy="177.2" r="6" fill="#5A5A5A"/><circle cx="732.8" cy="197.1" r="6" fill="#5A5A5A"/><circle cx="745.6" cy="222.2" r="6" fill="#5A5A5A"/></svg>