<svg xmlns="http://www.w3.org/2000/svg" viewBox="0 0 880 460" font-family="system-ui, -apple-system, 'Segoe UI', Roboto, sans-serif"><rect width="880" height="460" rx="20" fill="#EBEBEB"/><text x="60" y="50" font-size="14" font-weight="700" fill="#707070">✗ 모호한 간격</text><text x="60" y="100" font-size="13" fill="#8C8C8C">이메일</text><rect x="60" y="118" width="320" height="32" rx="8" fill="#FFFFFF" stroke="#D2D2D2"/><text x="60" y="180" font-size="13" fill="#8C8C8C">비밀번호</text><rect x="60" y="198" width="320" height="32" rx="8" fill="#FFFFFF" stroke="#D2D2D2"/><text x="60" y="260" font-size="13" fill="#8C8C8C">이름</text><rect x="60" y="278" width="320" height="32" rx="8" fill="#FFFFFF" stroke="#D2D2D2"/><text x="60" y="340" font-size="13" fill="#8C8C8C">전화번호</text><rect x="60" y="358" width="320" height="32" rx="8" fill="#FFFFFF" stroke="#D2D2D2"/><text x="500" y="50" font-size="14" font-weight="700" fill="#707070">✓ 라벨 붙임 + 섹션 분리</text><rect x="500" y="86" width="40" height="3" rx="1.5" fill="#6541F2"/><text x="500" y="100" font-size="11" fill="#6541F2" font-weight="700" letter-spacing="1.5">계정</text><text x="500" y="122" font-size="12" font-weight="600" fill="#5A5A5A">이메일</text><rect x="500" y="130" width="320" height="32" rx="8" fill="#FFFFFF" stroke="#B0B0B0"/><text x="500" y="182" font-size="12" font-weight="600" fill="#5A5A5A">비밀번호</text><rect x="500" y="190" width="320" height="32" rx="8" fill="#FFFFFF" stroke="#B0B0B0"/><rect x="500" y="254" width="40" height="3" rx="1.5" fill="#6541F2"/><text x="500" y="268" font-size="11" fill="#6541F2" font-weight="700" letter-spacing="1.5">프로필</text><text x="500" y="290" font-size="12" font-weight="600" fill="#5A5A5A">이름</text><rect x="500" y="298" width="320" height="32" rx="8" fill="#FFFFFF" stroke="#B0B0B0"/><text x="500" y="350" font-size="12" font-weight="600" fill="#5A5A5A">전화번호</text><rect x="500" y="358" width="320" height="32" rx="8" fill="#FFFFFF" stroke="#B0B0B0"/></svg>