<svg xmlns="http://www.w3.org/2000/svg" viewBox="0 0 880 460" font-family="system-ui, -apple-system, 'Segoe UI', Roboto, sans-serif"><rect width="880" height="460" rx="20" fill="#EBEBEB"/><text x="40" y="50" font-size="14" font-weight="700" fill="#707070">라벨–필드 vs 행간 간격 비율</text><text x="60" y="90" font-size="12" font-weight="700" fill="#C53434">1 : 1  모호</text><text x="60" y="110" font-size="11" fill="#8C8C8C">필드 1</text><rect x="60" y="134" width="200" height="28" rx="6" fill="#FFFFFF" stroke="#D2D2D2"/><text x="270" y="126" font-size="10" fill="#C53434">↕ 24</text><text x="270" y="178" font-size="10" fill="#C53434">↕ 24</text><text x="60" y="186" font-size="11" fill="#8C8C8C">필드 2</text><rect x="60" y="210" width="200" height="28" rx="6" fill="#FFFFFF" stroke="#D2D2D2"/><text x="60" y="262" font-size="11" fill="#8C8C8C">필드 3</text><rect x="60" y="286" width="200" height="28" rx="6" fill="#FFFFFF" stroke="#D2D2D2"/><text x="340" y="90" font-size="12" font-weight="700" fill="#D97706">1 : 2  경계</text><text x="340" y="110" font-size="11" fill="#8C8C8C">필드 1</text><rect x="340" y="122" width="200" height="28" rx="6" fill="#FFFFFF" stroke="#D2D2D2"/><text x="550" y="120" font-size="10" fill="#D97706">↕ 12</text><text x="550" y="166" font-size="10" fill="#D97706">↕ 24</text><text x="340" y="174" font-size="11" fill="#8C8C8C">필드 2</text><rect x="340" y="186" width="200" height="28" rx="6" fill="#FFFFFF" stroke="#D2D2D2"/><text x="340" y="238" font-size="11" fill="#8C8C8C">필드 3</text><rect x="340" y="250" width="200" height="28" rx="6" fill="#FFFFFF" stroke="#D2D2D2"/><text x="620" y="90" font-size="12" font-weight="700" fill="#1F9D55">1 : 3  명확</text><text x="620" y="110" font-size="11" fill="#8C8C8C">필드 1</text><rect x="620" y="118" width="200" height="28" rx="6" fill="#FFFFFF" stroke="#D2D2D2"/><text x="830" y="118" font-size="10" fill="#1F9D55">↕ 8</text><text x="830" y="162" font-size="10" fill="#1F9D55">↕ 24</text><text x="620" y="170" font-size="11" fill="#8C8C8C">필드 2</text><rect x="620" y="178" width="200" height="28" rx="6" fill="#FFFFFF" stroke="#D2D2D2"/><text x="620" y="230" font-size="11" fill="#8C8C8C">필드 3</text><rect x="620" y="238" width="200" height="28" rx="6" fill="#FFFFFF" stroke="#D2D2D2"/><text x="40" y="410" font-size="12" fill="#8C8C8C">→ 라벨–필드 간격이 행간보다 명백히 작아야(1:3 이상) 라벨이 자기 필드에 묶여 보임</text></svg>