<svg xmlns="http://www.w3.org/2000/svg" viewBox="0 0 880 460" font-family="system-ui, -apple-system, 'Segoe UI', Roboto, sans-serif"><rect width="880" height="460" rx="20" fill="#EBEBEB"/><text x="60" y="50" font-size="14" font-weight="600" fill="#707070">✗ 모호한 간격</text><text x="60" y="80" font-size="13" fill="#8C8C8C">이메일</text><rect x="60" y="98" width="320" height="32" rx="8" fill="#FFFFFF" stroke="#D2D2D2"/><text x="60" y="158" font-size="13" fill="#8C8C8C">비밀번호</text><rect x="60" y="176" width="320" height="32" rx="8" fill="#FFFFFF" stroke="#D2D2D2"/><text x="60" y="236" font-size="13" fill="#8C8C8C">이름</text><rect x="60" y="254" width="320" height="32" rx="8" fill="#FFFFFF" stroke="#D2D2D2"/><text x="60" y="314" font-size="13" fill="#8C8C8C">전화번호</text><rect x="60" y="332" width="320" height="32" rx="8" fill="#FFFFFF" stroke="#D2D2D2"/><text x="500" y="50" font-size="14" font-weight="600" fill="#707070">✓ 라벨 붙임 + 섹션 분리</text><text x="500" y="70" font-size="11" fill="#FFB919" font-weight="700" letter-spacing="1">계정</text><text x="500" y="98" font-size="12" fill="#5A5A5A">이메일</text><rect x="500" y="106" width="320" height="32" rx="8" fill="#FFFFFF" stroke="#B0B0B0"/><text x="500" y="162" font-size="12" fill="#5A5A5A">비밀번호</text><rect x="500" y="170" width="320" height="32" rx="8" fill="#FFFFFF" stroke="#B0B0B0"/><text x="500" y="234" font-size="11" fill="#FFB919" font-weight="700" letter-spacing="1">프로필</text><text x="500" y="262" font-size="12" fill="#5A5A5A">이름</text><rect x="500" y="270" width="320" height="32" rx="8" fill="#FFFFFF" stroke="#B0B0B0"/><text x="500" y="326" font-size="12" fill="#5A5A5A">전화번호</text><rect x="500" y="334" width="320" height="32" rx="8" fill="#FFFFFF" stroke="#B0B0B0"/></svg>