<svg xmlns="http://www.w3.org/2000/svg" viewBox="0 0 880 460" font-family="system-ui, -apple-system, 'Segoe UI', Roboto, sans-serif"><rect width="880" height="460" rx="20" fill="#EBEBEB"/><text x="60" y="60" font-size="14" font-weight="600" fill="#707070">✗ 같은 색의 버튼 세 개 (위계 없음)</text><rect x="60" y="80" width="130" height="40" rx="10" fill="#FFB919"/><text x="125" y="105" text-anchor="middle" font-size="13" font-weight="600" fill="#FFFFFF">취소</text><rect x="210" y="80" width="130" height="40" rx="10" fill="#FFB919"/><text x="275" y="105" text-anchor="middle" font-size="13" font-weight="600" fill="#FFFFFF">임시저장</text><rect x="360" y="80" width="130" height="40" rx="10" fill="#FFB919"/><text x="425" y="105" text-anchor="middle" font-size="13" font-weight="600" fill="#FFFFFF">발행하기</text><text x="60" y="200" font-size="14" font-weight="600" fill="#707070">✓ 주요 CTA만 차별화 (유사성 → 위계)</text><text x="80" y="248" font-size="13" font-weight="600" fill="#8C8C8C">취소</text><rect x="180" y="220" width="130" height="40" rx="10" fill="none" stroke="#B0B0B0" stroke-width="1.5"/><text x="245" y="245" text-anchor="middle" font-size="13" font-weight="600" fill="#5A5A5A">임시저장</text><rect x="330" y="220" width="160" height="40" rx="10" fill="#FFB919"/><text x="410" y="245" text-anchor="middle" font-size="13" font-weight="700" fill="#FFFFFF">발행하기</text><text x="60" y="330" font-size="14" font-weight="600" fill="#707070">상태 태그도 같은 종류는 같은 색</text><rect x="60" y="345" width="74" height="26" rx="13" fill="#FFB919"/><text x="97" y="362" text-anchor="middle" font-size="11" font-weight="600" fill="#FFFFFF">진행중</text><rect x="150" y="345" width="74" height="26" rx="13" fill="#FFB919"/><text x="187" y="362" text-anchor="middle" font-size="11" font-weight="600" fill="#FFFFFF">진행중</text><rect x="240" y="345" width="74" height="26" rx="13" fill="#8C8C8C"/><text x="277" y="362" text-anchor="middle" font-size="11" font-weight="600" fill="#FFFFFF">완료</text><rect x="330" y="345" width="74" height="26" rx="13" fill="#8C8C8C"/><text x="367" y="362" text-anchor="middle" font-size="11" font-weight="600" fill="#FFFFFF">완료</text></svg>