<svg xmlns="http://www.w3.org/2000/svg" viewBox="0 0 880 460" font-family="system-ui, -apple-system, 'Segoe UI', Roboto, sans-serif"><rect width="880" height="460" rx="20" fill="#EBEBEB"/><text x="40" y="50" font-size="14" font-weight="700" fill="#707070">Elevation 시스템 — depth 위계로 figure-ground 단계화</text><rect x="50" y="130" width="140" height="120" rx="12" fill="#FFFFFF" stroke="#D2D2D2"/><rect x="66" y="150" width="80" height="10" rx="5" fill="#5A5A5A"/><rect x="66" y="170" width="108" height="6" rx="3" fill="#B0B0B0"/><rect x="66" y="184" width="80" height="6" rx="3" fill="#B0B0B0"/><text x="120" y="278" text-anchor="middle" font-size="13" font-weight="700" fill="#6541F2">0dp</text><text x="120" y="298" text-anchor="middle" font-size="11" fill="#8C8C8C">Background</text><rect x="211" y="132" width="140" height="120" rx="12" fill="#000000" opacity="0.06"/><rect x="210" y="130" width="140" height="120" rx="12" fill="#FFFFFF" stroke="#D2D2D2"/><rect x="226" y="150" width="80" height="10" rx="5" fill="#5A5A5A"/><rect x="226" y="170" width="108" height="6" rx="3" fill="#B0B0B0"/><rect x="226" y="184" width="80" height="6" rx="3" fill="#B0B0B0"/><text x="280" y="278" text-anchor="middle" font-size="13" font-weight="700" fill="#6541F2">1dp</text><text x="280" y="298" text-anchor="middle" font-size="11" fill="#8C8C8C">Card</text><rect x="371" y="132" width="140" height="120" rx="12" fill="#000000" opacity="0.06"/><rect x="372" y="133" width="140" height="120" rx="12" fill="#000000" opacity="0.06"/><rect x="373" y="134" width="140" height="120" rx="12" fill="#000000" opacity="0.06"/><rect x="370" y="130" width="140" height="120" rx="12" fill="#FFFFFF" stroke="#D2D2D2"/><rect x="386" y="150" width="80" height="10" rx="5" fill="#5A5A5A"/><rect x="386" y="170" width="108" height="6" rx="3" fill="#B0B0B0"/><rect x="386" y="184" width="80" height="6" rx="3" fill="#B0B0B0"/><text x="440" y="278" text-anchor="middle" font-size="13" font-weight="700" fill="#6541F2">3dp</text><text x="440" y="298" text-anchor="middle" font-size="11" fill="#8C8C8C">Active card</text><rect x="531" y="132" width="140" height="120" rx="12" fill="#000000" opacity="0.06"/><rect x="532" y="133" width="140" height="120" rx="12" fill="#000000" opacity="0.06"/><rect x="533" y="134" width="140" height="120" rx="12" fill="#000000" opacity="0.06"/><rect x="534" y="135" width="140" height="120" rx="12" fill="#000000" opacity="0.06"/><rect x="535" y="136" width="140" height="120" rx="12" fill="#000000" opacity="0.06"/><rect x="530" y="130" width="140" height="120" rx="12" fill="#FFFFFF" stroke="#D2D2D2"/><rect x="546" y="150" width="80" height="10" rx="5" fill="#5A5A5A"/><rect x="546" y="170" width="108" height="6" rx="3" fill="#B0B0B0"/><rect x="546" y="184" width="80" height="6" rx="3" fill="#B0B0B0"/><text x="600" y="278" text-anchor="middle" font-size="13" font-weight="700" fill="#6541F2">8dp</text><text x="600" y="298" text-anchor="middle" font-size="11" fill="#8C8C8C">Menu / Sheet</text><rect x="691" y="132" width="140" height="120" rx="12" fill="#000000" opacity="0.06"/><rect x="692" y="133" width="140" height="120" rx="12" fill="#000000" opacity="0.06"/><rect x="693" y="134" width="140" height="120" rx="12" fill="#000000" opacity="0.06"/><rect x="694" y="135" width="140" height="120" rx="12" fill="#000000" opacity="0.06"/><rect x="695" y="136" width="140" height="120" rx="12" fill="#000000" opacity="0.06"/><rect x="690" y="130" width="140" height="120" rx="12" fill="#FFFFFF" stroke="#D2D2D2"/><rect x="706" y="150" width="80" height="10" rx="5" fill="#5A5A5A"/><rect x="706" y="170" width="108" height="6" rx="3" fill="#B0B0B0"/><rect x="706" y="184" width="80" height="6" rx="3" fill="#B0B0B0"/><text x="760" y="278" text-anchor="middle" font-size="13" font-weight="700" fill="#6541F2">16dp</text><text x="760" y="298" text-anchor="middle" font-size="11" fill="#8C8C8C">Modal / Dialog</text><text x="40" y="410" font-size="12" fill="#8C8C8C">→ 같은 elevation = 같은 위계. 모달은 16dp로 가장 강한 figure로 떠오름</text></svg>