<svg xmlns="http://www.w3.org/2000/svg" viewBox="0 0 880 460" font-family="system-ui, -apple-system, 'Segoe UI', Roboto, sans-serif"><rect width="880" height="460" rx="20" fill="#EBEBEB"/><text x="60" y="50" font-size="14" font-weight="600" fill="#707070">캐러셀: 다음 카드를 살짝 잘라 보여 "더 있음"을 암시</text><rect x="60" y="80" width="200" height="240" rx="14" fill="#FFFFFF" stroke="#D2D2D2"/><rect x="76" y="96" width="168" height="120" rx="8" fill="#B0B0B0"/><rect x="76" y="230" width="120" height="12" rx="6" fill="#5A5A5A"/><rect x="76" y="252" width="140" height="10" rx="5" fill="#D2D2D2"/><rect x="76" y="270" width="100" height="10" rx="5" fill="#D2D2D2"/><rect x="276" y="80" width="200" height="240" rx="14" fill="#FFFFFF" stroke="#D2D2D2"/><rect x="292" y="96" width="168" height="120" rx="8" fill="#B0B0B0"/><rect x="292" y="230" width="120" height="12" rx="6" fill="#5A5A5A"/><rect x="292" y="252" width="140" height="10" rx="5" fill="#D2D2D2"/><rect x="292" y="270" width="100" height="10" rx="5" fill="#D2D2D2"/><rect x="492" y="80" width="200" height="240" rx="14" fill="#FFFFFF" stroke="#D2D2D2"/><rect x="508" y="96" width="168" height="120" rx="8" fill="#B0B0B0"/><rect x="508" y="230" width="120" height="12" rx="6" fill="#5A5A5A"/><rect x="508" y="252" width="140" height="10" rx="5" fill="#D2D2D2"/><rect x="508" y="270" width="100" height="10" rx="5" fill="#D2D2D2"/><rect x="708" y="80" width="200" height="240" rx="14" fill="#FFFFFF" stroke="#D2D2D2"/><rect x="724" y="96" width="168" height="120" rx="8" fill="#B0B0B0"/><rect x="724" y="230" width="120" height="12" rx="6" fill="#5A5A5A"/><rect x="724" y="252" width="140" height="10" rx="5" fill="#D2D2D2"/><rect x="724" y="270" width="100" height="10" rx="5" fill="#D2D2D2"/><defs><linearGradient id="fade" x1="0" x2="1"><stop offset="0" stop-color="#EBEBEB" stop-opacity="0"/><stop offset="1" stop-color="#EBEBEB"/></linearGradient></defs><rect x="750" y="0" width="130" height="460" fill="url(#fade)"/><g transform="translate(412,430)"><circle cx="0" cy="0" r="4" fill="#FFB919"/><circle cx="14" cy="0" r="4" fill="#D2D2D2"/><circle cx="28" cy="0" r="4" fill="#D2D2D2"/><circle cx="42" cy="0" r="4" fill="#D2D2D2"/></g></svg>