<svg xmlns="http://www.w3.org/2000/svg" viewBox="0 0 880 460" font-family="system-ui, -apple-system, 'Segoe UI', Roboto, sans-serif"><rect width="880" height="460" rx="20" fill="#EBEBEB"/><text x="60" y="50" font-size="14" font-weight="600" fill="#707070">긴 글을 살짝 잘라 "더 있음"을 폐쇄성으로 암시</text><rect x="60" y="90" width="340" height="10" rx="5" fill="#5A5A5A"/><rect x="60" y="112" width="280" height="10" rx="5" fill="#5A5A5A"/><rect x="60" y="134" width="320" height="10" rx="5" fill="#5A5A5A"/><rect x="60" y="156" width="300" height="10" rx="5" fill="#B0B0B0"/><rect x="60" y="178" width="360" height="10" rx="5" fill="#B0B0B0"/><rect x="60" y="200" width="240" height="10" rx="5" fill="#B0B0B0"/><rect x="60" y="222" width="310" height="10" rx="5" fill="#D2D2D2"/><rect x="60" y="244" width="280" height="10" rx="5" fill="#D2D2D2"/><rect x="60" y="266" width="300" height="10" rx="5" fill="#D2D2D2"/><defs><linearGradient id="vfade" x1="0" y1="0" x2="0" y2="1"><stop offset="0" stop-color="#EBEBEB" stop-opacity="0"/><stop offset="1" stop-color="#EBEBEB"/></linearGradient></defs><rect x="0" y="180" width="500" height="160" fill="url(#vfade)"/><rect x="170" y="350" width="170" height="44" rx="22" fill="#FFB919"/><text x="255" y="378" text-anchor="middle" font-size="13" font-weight="700" fill="#FFFFFF">더 읽기 ↓</text><text x="560" y="80" font-size="14" font-weight="600" fill="#707070">로고도 폐쇄성으로 형태를 암시</text><path d="M580 200 L580 110 L640 170 L700 110 L700 200" fill="none" stroke="#5A5A5A" stroke-width="14" stroke-linecap="round" stroke-linejoin="round"/><text x="640" y="260" text-anchor="middle" font-size="12" fill="#8C8C8C">최소 단서로 M 인식</text></svg>