<svg xmlns="http://www.w3.org/2000/svg" viewBox="0 0 880 460" font-family="system-ui, -apple-system, 'Segoe UI', Roboto, sans-serif"><rect width="880" height="460" rx="20" fill="#EBEBEB"/><rect x="0" y="0" width="880" height="460" fill="#EBEBEB" rx="20"/><rect x="40" y="40" width="800" height="44" rx="10" fill="#FFFFFF"/><rect x="60" y="58" width="80" height="10" rx="5" fill="#5A5A5A"/><circle cx="820" cy="62" r="12" fill="#D2D2D2"/><rect x="40" y="110" width="240" height="200" rx="12" fill="#FFFFFF" stroke="#D2D2D2"/><rect x="300" y="110" width="240" height="200" rx="12" fill="#FFFFFF" stroke="#D2D2D2"/><rect x="560" y="110" width="240" height="200" rx="12" fill="#FFFFFF" stroke="#D2D2D2"/><rect x="0" y="0" width="880" height="460" fill="#707070" opacity="0.55" rx="20"/><rect x="248" y="130" width="400" height="220" rx="16" fill="#000" opacity="0.25"/><rect x="240" y="120" width="400" height="220" rx="16" fill="#FFFFFF"/><text x="264" y="160" font-size="16" font-weight="700" fill="#5A5A5A">계정 삭제</text><text x="264" y="192" font-size="13" fill="#8C8C8C">이 작업은 되돌릴 수 없습니다.</text><text x="264" y="212" font-size="13" fill="#8C8C8C">정말 계속하시겠습니까?</text><rect x="420" y="282" width="90" height="38" rx="10" fill="none" stroke="#B0B0B0" stroke-width="1.5"/><text x="465" y="306" text-anchor="middle" font-size="13" font-weight="600" fill="#5A5A5A">취소</text><rect x="520" y="282" width="100" height="38" rx="10" fill="#6541F2"/><text x="570" y="306" text-anchor="middle" font-size="13" font-weight="700" fill="#FFFFFF">삭제</text></svg>