<svg xmlns="http://www.w3.org/2000/svg" viewBox="0 0 880 460" font-family="system-ui, -apple-system, 'Segoe UI', Roboto, sans-serif"><rect width="880" height="460" rx="20" fill="#EBEBEB"/><text x="60" y="50" font-size="14" font-weight="600" fill="#707070">아코디언: 펼쳐지는 항목들이 함께 움직여 한 묶음으로 인식</text><text x="80" y="90" font-size="12" fill="#8C8C8C">접힌 상태</text><rect x="80" y="110" width="280" height="34" rx="8" fill="#FFFFFF" stroke="#D2D2D2"/><text x="100" y="132" font-size="13" font-weight="600" fill="#5A5A5A">배송 정보</text><text x="340" y="132" font-size="14" fill="#8C8C8C">＋</text><rect x="80" y="152" width="280" height="34" rx="8" fill="#FFFFFF" stroke="#D2D2D2"/><text x="100" y="174" font-size="13" font-weight="600" fill="#5A5A5A">결제 수단</text><text x="340" y="174" font-size="14" fill="#8C8C8C">＋</text><rect x="80" y="194" width="280" height="34" rx="8" fill="#FFFFFF" stroke="#D2D2D2"/><text x="100" y="216" font-size="13" font-weight="600" fill="#5A5A5A">주문 요약</text><text x="340" y="216" font-size="14" fill="#8C8C8C">＋</text><text x="500" y="90" font-size="12" fill="#8C8C8C">펼쳐진 상태</text><rect x="500" y="110" width="280" height="34" rx="8" fill="#FFFFFF" stroke="#6541F2" stroke-width="2"/><text x="520" y="132" font-size="13" font-weight="700" fill="#5A5A5A">배송 정보</text><text x="760" y="132" font-size="14" fill="#6541F2">－</text><rect x="500" y="150" width="280" height="100" rx="8" fill="#EBEBEB" stroke="#D2D2D2"/><rect x="520" y="170" width="240" height="10" rx="5" fill="#B0B0B0"/><rect x="520" y="188" width="180" height="10" rx="5" fill="#B0B0B0"/><rect x="520" y="218" width="220" height="20" rx="6" fill="#FFFFFF" stroke="#D2D2D2"/><rect x="500" y="260" width="280" height="34" rx="8" fill="#FFFFFF" stroke="#D2D2D2"/><text x="520" y="282" font-size="13" font-weight="600" fill="#5A5A5A">결제 수단</text><text x="760" y="282" font-size="14" fill="#8C8C8C">＋</text><path d="M785 254 l0 18 m-5 -6 l5 6 5 -6" stroke="#6541F2" stroke-width="2" fill="none" stroke-linecap="round"/><rect x="500" y="302" width="280" height="34" rx="8" fill="#FFFFFF" stroke="#D2D2D2"/><text x="520" y="324" font-size="13" font-weight="600" fill="#5A5A5A">주문 요약</text><text x="760" y="324" font-size="14" fill="#8C8C8C">＋</text><path d="M785 296 l0 18 m-5 -6 l5 6 5 -6" stroke="#6541F2" stroke-width="2" fill="none" stroke-linecap="round"/></svg>