<svg xmlns="http://www.w3.org/2000/svg" viewBox="0 0 880 460" font-family="system-ui, -apple-system, 'Segoe UI', Roboto, sans-serif"><rect width="880" height="460" rx="20" fill="#EBEBEB"/><text x="40" y="50" font-size="14" font-weight="700" fill="#707070">8pt 그리드 시스템 — 모든 간격·크기를 8의 배수로</text><line x1="0" y1="80" x2="0" y2="430" stroke="#6541F2" stroke-width="0.5" opacity="0.3"/><line x1="8" y1="80" x2="8" y2="430" stroke="#6541F2" stroke-width="0.5" opacity="0.12"/><line x1="16" y1="80" x2="16" y2="430" stroke="#6541F2" stroke-width="0.5" opacity="0.12"/><line x1="24" y1="80" x2="24" y2="430" stroke="#6541F2" stroke-width="0.5" opacity="0.12"/><line x1="32" y1="80" x2="32" y2="430" stroke="#6541F2" stroke-width="0.5" opacity="0.3"/><line x1="40" y1="80" x2="40" y2="430" stroke="#6541F2" stroke-width="0.5" opacity="0.12"/><line x1="48" y1="80" x2="48" y2="430" stroke="#6541F2" stroke-width="0.5" opacity="0.12"/><line x1="56" y1="80" x2="56" y2="430" stroke="#6541F2" stroke-width="0.5" opacity="0.12"/><line x1="64" y1="80" x2="64" y2="430" stroke="#6541F2" stroke-width="0.5" opacity="0.3"/><line x1="72" y1="80" x2="72" y2="430" stroke="#6541F2" stroke-width="0.5" opacity="0.12"/><line x1="80" y1="80" x2="80" y2="430" stroke="#6541F2" stroke-width="0.5" opacity="0.12"/><line x1="88" y1="80" x2="88" y2="430" stroke="#6541F2" stroke-width="0.5" opacity="0.12"/><line x1="96" y1="80" x2="96" y2="430" stroke="#6541F2" stroke-width="0.5" opacity="0.3"/><line x1="104" y1="80" x2="104" y2="430" stroke="#6541F2" stroke-width="0.5" opacity="0.12"/><line x1="112" y1="80" x2="112" y2="430" stroke="#6541F2" stroke-width="0.5" opacity="0.12"/><line x1="120" y1="80" x2="120" y2="430" stroke="#6541F2" stroke-width="0.5" opacity="0.12"/><line x1="128" y1="80" x2="128" y2="430" stroke="#6541F2" stroke-width="0.5" opacity="0.3"/><line x1="136" y1="80" x2="136" y2="430" stroke="#6541F2" stroke-width="0.5" opacity="0.12"/><line x1="144" y1="80" x2="144" y2="430" stroke="#6541F2" stroke-width="0.5" opacity="0.12"/><line x1="152" y1="80" x2="152" y2="430" stroke="#6541F2" stroke-width="0.5" opacity="0.12"/><line x1="160" y1="80" x2="160" y2="430" stroke="#6541F2" stroke-width="0.5" opacity="0.3"/><line x1="168" y1="80" x2="168" y2="430" stroke="#6541F2" stroke-width="0.5" opacity="0.12"/><line x1="176" y1="80" x2="176" y2="430" stroke="#6541F2" stroke-width="0.5" opacity="0.12"/><line x1="184" y1="80" x2="184" y2="430" stroke="#6541F2" stroke-width="0.5" opacity="0.12"/><line x1="192" y1="80" x2="192" y2="430" stroke="#6541F2" stroke-width="0.5" opacity="0.3"/><line x1="200" y1="80" x2="200" y2="430" stroke="#6541F2" stroke-width="0.5" opacity="0.12"/><line x1="208" y1="80" x2="208" y2="430" stroke="#6541F2" stroke-width="0.5" opacity="0.12"/><line x1="216" y1="80" x2="216" y2="430" stroke="#6541F2" stroke-width="0.5" opacity="0.12"/><line x1="224" y1="80" x2="224" y2="430" stroke="#6541F2" stroke-width="0.5" opacity="0.3"/><line x1="232" y1="80" x2="232" y2="430" stroke="#6541F2" stroke-width="0.5" opacity="0.12"/><line x1="240" y1="80" x2="240" y2="430" stroke="#6541F2" stroke-width="0.5" opacity="0.12"/><line x1="248" y1="80" x2="248" y2="430" stroke="#6541F2" stroke-width="0.5" opacity="0.12"/><line x1="256" y1="80" x2="256" y2="430" stroke="#6541F2" stroke-width="0.5" opacity="0.3"/><line x1="264" y1="80" x2="264" y2="430" stroke="#6541F2" stroke-width="0.5" opacity="0.12"/><line x1="272" y1="80" x2="272" y2="430" stroke="#6541F2" stroke-width="0.5" opacity="0.12"/><line x1="280" y1="80" x2="280" y2="430" stroke="#6541F2" stroke-width="0.5" opacity="0.12"/><line x1="288" y1="80" x2="288" y2="430" stroke="#6541F2" stroke-width="0.5" opacity="0.3"/><line x1="296" y1="80" x2="296" y2="430" stroke="#6541F2" stroke-width="0.5" opacity="0.12"/><line x1="304" y1="80" x2="304" y2="430" stroke="#6541F2" stroke-width="0.5" opacity="0.12"/><line x1="312" y1="80" x2="312" y2="430" stroke="#6541F2" stroke-width="0.5" opacity="0.12"/><line x1="320" y1="80" x2="320" y2="430" stroke="#6541F2" stroke-width="0.5" opacity="0.3"/><line x1="328" y1="80" x2="328" y2="430" stroke="#6541F2" stroke-width="0.5" opacity="0.12"/><line x1="336" y1="80" x2="336" y2="430" stroke="#6541F2" stroke-width="0.5" opacity="0.12"/><line x1="344" y1="80" x2="344" y2="430" stroke="#6541F2" stroke-width="0.5" opacity="0.12"/><line x1="352" y1="80" x2="352" y2="430" stroke="#6541F2" stroke-width="0.5" opacity="0.3"/><line x1="360" y1="80" x2="360" y2="430" stroke="#6541F2" stroke-width="0.5" opacity="0.12"/><line x1="368" y1="80" x2="368" y2="430" stroke="#6541F2" stroke-width="0.5" opacity="0.12"/><line x1="376" y1="80" x2="376" y2="430" stroke="#6541F2" stroke-width="0.5" opacity="0.12"/><line x1="384" y1="80" x2="384" y2="430" stroke="#6541F2" stroke-width="0.5" opacity="0.3"/><line x1="392" y1="80" x2="392" y2="430" stroke="#6541F2" stroke-width="0.5" opacity="0.12"/><line x1="400" y1="80" x2="400" y2="430" stroke="#6541F2" stroke-width="0.5" opacity="0.12"/><line x1="408" y1="80" x2="408" y2="430" stroke="#6541F2" stroke-width="0.5" opacity="0.12"/><line x1="416" y1="80" x2="416" y2="430" stroke="#6541F2" stroke-width="0.5" opacity="0.3"/><line x1="424" y1="80" x2="424" y2="430" stroke="#6541F2" stroke-width="0.5" opacity="0.12"/><line x1="432" y1="80" x2="432" y2="430" stroke="#6541F2" stroke-width="0.5" opacity="0.12"/><line x1="440" y1="80" x2="440" y2="430" stroke="#6541F2" stroke-width="0.5" opacity="0.12"/><line x1="448" y1="80" x2="448" y2="430" stroke="#6541F2" stroke-width="0.5" opacity="0.3"/><line x1="456" y1="80" x2="456" y2="430" stroke="#6541F2" stroke-width="0.5" opacity="0.12"/><line x1="464" y1="80" x2="464" y2="430" stroke="#6541F2" stroke-width="0.5" opacity="0.12"/><line x1="472" y1="80" x2="472" y2="430" stroke="#6541F2" stroke-width="0.5" opacity="0.12"/><line x1="480" y1="80" x2="480" y2="430" stroke="#6541F2" stroke-width="0.5" opacity="0.3"/><line x1="488" y1="80" x2="488" y2="430" stroke="#6541F2" stroke-width="0.5" opacity="0.12"/><line x1="496" y1="80" x2="496" y2="430" stroke="#6541F2" stroke-width="0.5" opacity="0.12"/><line x1="504" y1="80" x2="504" y2="430" stroke="#6541F2" stroke-width="0.5" opacity="0.12"/><line x1="512" y1="80" x2="512" y2="430" stroke="#6541F2" stroke-width="0.5" opacity="0.3"/><line x1="520" y1="80" x2="520" y2="430" stroke="#6541F2" stroke-width="0.5" opacity="0.12"/><line x1="528" y1="80" x2="528" y2="430" stroke="#6541F2" stroke-width="0.5" opacity="0.12"/><line x1="536" y1="80" x2="536" y2="430" stroke="#6541F2" stroke-width="0.5" opacity="0.12"/><line x1="544" y1="80" x2="544" y2="430" stroke="#6541F2" stroke-width="0.5" opacity="0.3"/><line x1="552" y1="80" x2="552" y2="430" stroke="#6541F2" stroke-width="0.5" opacity="0.12"/><line x1="560" y1="80" x2="560" y2="430" stroke="#6541F2" stroke-width="0.5" opacity="0.12"/><line x1="568" y1="80" x2="568" y2="430" stroke="#6541F2" stroke-width="0.5" opacity="0.12"/><line x1="576" y1="80" x2="576" y2="430" stroke="#6541F2" stroke-width="0.5" opacity="0.3"/><line x1="584" y1="80" x2="584" y2="430" stroke="#6541F2" stroke-width="0.5" opacity="0.12"/><line x1="592" y1="80" x2="592" y2="430" stroke="#6541F2" stroke-width="0.5" opacity="0.12"/><line x1="600" y1="80" x2="600" y2="430" stroke="#6541F2" stroke-width="0.5" opacity="0.12"/><line x1="608" y1="80" x2="608" y2="430" stroke="#6541F2" stroke-width="0.5" opacity="0.3"/><line x1="616" y1="80" x2="616" y2="430" stroke="#6541F2" stroke-width="0.5" opacity="0.12"/><line x1="624" y1="80" x2="624" y2="430" stroke="#6541F2" stroke-width="0.5" opacity="0.12"/><line x1="632" y1="80" x2="632" y2="430" stroke="#6541F2" stroke-width="0.5" opacity="0.12"/><line x1="640" y1="80" x2="640" y2="430" stroke="#6541F2" stroke-width="0.5" opacity="0.3"/><line x1="648" y1="80" x2="648" y2="430" stroke="#6541F2" stroke-width="0.5" opacity="0.12"/><line x1="656" y1="80" x2="656" y2="430" stroke="#6541F2" stroke-width="0.5" opacity="0.12"/><line x1="664" y1="80" x2="664" y2="430" stroke="#6541F2" stroke-width="0.5" opacity="0.12"/><line x1="672" y1="80" x2="672" y2="430" stroke="#6541F2" stroke-width="0.5" opacity="0.3"/><line x1="680" y1="80" x2="680" y2="430" stroke="#6541F2" stroke-width="0.5" opacity="0.12"/><line x1="688" y1="80" x2="688" y2="430" stroke="#6541F2" stroke-width="0.5" opacity="0.12"/><line x1="696" y1="80" x2="696" y2="430" stroke="#6541F2" stroke-width="0.5" opacity="0.12"/><line x1="704" y1="80" x2="704" y2="430" stroke="#6541F2" stroke-width="0.5" opacity="0.3"/><line x1="712" y1="80" x2="712" y2="430" stroke="#6541F2" stroke-width="0.5" opacity="0.12"/><line x1="720" y1="80" x2="720" y2="430" stroke="#6541F2" stroke-width="0.5" opacity="0.12"/><line x1="728" y1="80" x2="728" y2="430" stroke="#6541F2" stroke-width="0.5" opacity="0.12"/><line x1="736" y1="80" x2="736" y2="430" stroke="#6541F2" stroke-width="0.5" opacity="0.3"/><line x1="744" y1="80" x2="744" y2="430" stroke="#6541F2" stroke-width="0.5" opacity="0.12"/><line x1="752" y1="80" x2="752" y2="430" stroke="#6541F2" stroke-width="0.5" opacity="0.12"/><line x1="760" y1="80" x2="760" y2="430" stroke="#6541F2" stroke-width="0.5" opacity="0.12"/><line x1="768" y1="80" x2="768" y2="430" stroke="#6541F2" stroke-width="0.5" opacity="0.3"/><line x1="776" y1="80" x2="776" y2="430" stroke="#6541F2" stroke-width="0.5" opacity="0.12"/><line x1="784" y1="80" x2="784" y2="430" stroke="#6541F2" stroke-width="0.5" opacity="0.12"/><line x1="792" y1="80" x2="792" y2="430" stroke="#6541F2" stroke-width="0.5" opacity="0.12"/><line x1="800" y1="80" x2="800" y2="430" stroke="#6541F2" stroke-width="0.5" opacity="0.3"/><line x1="808" y1="80" x2="808" y2="430" stroke="#6541F2" stroke-width="0.5" opacity="0.12"/><line x1="816" y1="80" x2="816" y2="430" stroke="#6541F2" stroke-width="0.5" opacity="0.12"/><line x1="824" y1="80" x2="824" y2="430" stroke="#6541F2" stroke-width="0.5" opacity="0.12"/><line x1="832" y1="80" x2="832" y2="430" stroke="#6541F2" stroke-width="0.5" opacity="0.3"/><line x1="840" y1="80" x2="840" y2="430" stroke="#6541F2" stroke-width="0.5" opacity="0.12"/><line x1="848" y1="80" x2="848" y2="430" stroke="#6541F2" stroke-width="0.5" opacity="0.12"/><line x1="856" y1="80" x2="856" y2="430" stroke="#6541F2" stroke-width="0.5" opacity="0.12"/><line x1="864" y1="80" x2="864" y2="430" stroke="#6541F2" stroke-width="0.5" opacity="0.3"/><line x1="872" y1="80" x2="872" y2="430" stroke="#6541F2" stroke-width="0.5" opacity="0.12"/><line x1="40" y1="80" x2="840" y2="80" stroke="#6541F2" stroke-width="0.5" opacity="0.3"/><line x1="40" y1="88" x2="840" y2="88" stroke="#6541F2" stroke-width="0.5" opacity="0.12"/><line x1="40" y1="96" x2="840" y2="96" stroke="#6541F2" stroke-width="0.5" opacity="0.12"/><line x1="40" y1="104" x2="840" y2="104" stroke="#6541F2" stroke-width="0.5" opacity="0.12"/><line x1="40" y1="112" x2="840" y2="112" stroke="#6541F2" stroke-width="0.5" opacity="0.3"/><line x1="40" y1="120" x2="840" y2="120" stroke="#6541F2" stroke-width="0.5" opacity="0.12"/><line x1="40" y1="128" x2="840" y2="128" stroke="#6541F2" stroke-width="0.5" opacity="0.12"/><line x1="40" y1="136" x2="840" y2="136" stroke="#6541F2" stroke-width="0.5" opacity="0.12"/><line x1="40" y1="144" x2="840" y2="144" stroke="#6541F2" stroke-width="0.5" opacity="0.3"/><line x1="40" y1="152" x2="840" y2="152" stroke="#6541F2" stroke-width="0.5" opacity="0.12"/><line x1="40" y1="160" x2="840" y2="160" stroke="#6541F2" stroke-width="0.5" opacity="0.12"/><line x1="40" y1="168" x2="840" y2="168" stroke="#6541F2" stroke-width="0.5" opacity="0.12"/><line x1="40" y1="176" x2="840" y2="176" stroke="#6541F2" stroke-width="0.5" opacity="0.3"/><line x1="40" y1="184" x2="840" y2="184" stroke="#6541F2" stroke-width="0.5" opacity="0.12"/><line x1="40" y1="192" x2="840" y2="192" stroke="#6541F2" stroke-width="0.5" opacity="0.12"/><line x1="40" y1="200" x2="840" y2="200" stroke="#6541F2" stroke-width="0.5" opacity="0.12"/><line x1="40" y1="208" x2="840" y2="208" stroke="#6541F2" stroke-width="0.5" opacity="0.3"/><line x1="40" y1="216" x2="840" y2="216" stroke="#6541F2" stroke-width="0.5" opacity="0.12"/><line x1="40" y1="224" x2="840" y2="224" stroke="#6541F2" stroke-width="0.5" opacity="0.12"/><line x1="40" y1="232" x2="840" y2="232" stroke="#6541F2" stroke-width="0.5" opacity="0.12"/><line x1="40" y1="240" x2="840" y2="240" stroke="#6541F2" stroke-width="0.5" opacity="0.3"/><line x1="40" y1="248" x2="840" y2="248" stroke="#6541F2" stroke-width="0.5" opacity="0.12"/><line x1="40" y1="256" x2="840" y2="256" stroke="#6541F2" stroke-width="0.5" opacity="0.12"/><line x1="40" y1="264" x2="840" y2="264" stroke="#6541F2" stroke-width="0.5" opacity="0.12"/><line x1="40" y1="272" x2="840" y2="272" stroke="#6541F2" stroke-width="0.5" opacity="0.3"/><line x1="40" y1="280" x2="840" y2="280" stroke="#6541F2" stroke-width="0.5" opacity="0.12"/><line x1="40" y1="288" x2="840" y2="288" stroke="#6541F2" stroke-width="0.5" opacity="0.12"/><line x1="40" y1="296" x2="840" y2="296" stroke="#6541F2" stroke-width="0.5" opacity="0.12"/><line x1="40" y1="304" x2="840" y2="304" stroke="#6541F2" stroke-width="0.5" opacity="0.3"/><line x1="40" y1="312" x2="840" y2="312" stroke="#6541F2" stroke-width="0.5" opacity="0.12"/><line x1="40" y1="320" x2="840" y2="320" stroke="#6541F2" stroke-width="0.5" opacity="0.12"/><line x1="40" y1="328" x2="840" y2="328" stroke="#6541F2" stroke-width="0.5" opacity="0.12"/><line x1="40" y1="336" x2="840" y2="336" stroke="#6541F2" stroke-width="0.5" opacity="0.3"/><line x1="40" y1="344" x2="840" y2="344" stroke="#6541F2" stroke-width="0.5" opacity="0.12"/><line x1="40" y1="352" x2="840" y2="352" stroke="#6541F2" stroke-width="0.5" opacity="0.12"/><line x1="40" y1="360" x2="840" y2="360" stroke="#6541F2" stroke-width="0.5" opacity="0.12"/><line x1="40" y1="368" x2="840" y2="368" stroke="#6541F2" stroke-width="0.5" opacity="0.3"/><line x1="40" y1="376" x2="840" y2="376" stroke="#6541F2" stroke-width="0.5" opacity="0.12"/><line x1="40" y1="384" x2="840" y2="384" stroke="#6541F2" stroke-width="0.5" opacity="0.12"/><line x1="40" y1="392" x2="840" y2="392" stroke="#6541F2" stroke-width="0.5" opacity="0.12"/><line x1="40" y1="400" x2="840" y2="400" stroke="#6541F2" stroke-width="0.5" opacity="0.3"/><line x1="40" y1="408" x2="840" y2="408" stroke="#6541F2" stroke-width="0.5" opacity="0.12"/><line x1="40" y1="416" x2="840" y2="416" stroke="#6541F2" stroke-width="0.5" opacity="0.12"/><line x1="40" y1="424" x2="840" y2="424" stroke="#6541F2" stroke-width="0.5" opacity="0.12"/><rect x="80" y="112" width="320" height="192" rx="8" fill="#FFFFFF" stroke="#6541F2" stroke-width="2"/><rect x="104" y="136" width="120" height="16" rx="4" fill="#5A5A5A"/><rect x="104" y="168" width="272" height="8" rx="4" fill="#B0B0B0"/><rect x="104" y="184" width="200" height="8" rx="4" fill="#B0B0B0"/><rect x="104" y="216" width="96" height="40" rx="8" fill="#6541F2"/><text x="152" y="242" text-anchor="middle" font-size="13" font-weight="700" fill="#FFFFFF">실행</text><text x="440" y="130" font-size="12" font-weight="700" fill="#6541F2">카드 320 × 192 (8 × 40, 8 × 24)</text><text x="440" y="156" font-size="12" fill="#8C8C8C">패딩 24 (8 × 3) — 외부 여백도 8의 배수</text><text x="440" y="182" font-size="12" fill="#8C8C8C">제목 16 / 본문 8 — 행 높이 4의 배수 (sub-8pt)</text><text x="440" y="208" font-size="12" fill="#8C8C8C">버튼 96 × 40 → CTA가 그리드에 정확히 안착</text><text x="440" y="252" font-size="13" font-weight="700" fill="#5A5A5A">왜 8pt인가?</text><text x="440" y="278" font-size="12" fill="#8C8C8C">• 1x/1.5x/2x/3x 모든 디바이스 해상도에서 정수</text><text x="440" y="296" font-size="12" fill="#8C8C8C">• 디자이너·개발자 spec 협업이 단순해짐</text><text x="440" y="314" font-size="12" fill="#8C8C8C">• 그리드에 자동 안착 → 정렬·균형 노력 ↓</text><text x="440" y="332" font-size="12" fill="#8C8C8C">• Material·HIG·Atlassian 등 대부분 채택</text></svg>