<svg xmlns="http://www.w3.org/2000/svg" viewBox="0 0 880 460" font-family="system-ui, -apple-system, 'Segoe UI', Roboto, sans-serif"><rect width="880" height="460" rx="20" fill="#EBEBEB"/><text x="60" y="50" font-size="14" font-weight="600" fill="#707070">대칭 그리드: 일관된 정렬이 "정돈됨 = 신뢰감"을 준다</text><rect x="60" y="80" width="240" height="320" rx="16" fill="#FFFFFF" stroke="#D2D2D2" stroke-width="1"/><text x="180" y="130" text-anchor="middle" font-size="14" font-weight="700" fill="#5A5A5A">Basic</text><text x="180" y="176" text-anchor="middle" font-size="26" font-weight="800" fill="#5A5A5A">₩0</text><text x="180" y="196" text-anchor="middle" font-size="11" fill="#8C8C8C">/월</text><circle cx="90" cy="230" r="6" fill="#6541F2"/><polyline points="87,230 90,233 94,227" fill="none" stroke="#FFFFFF" stroke-width="1.6"/><rect x="106" y="225" width="164" height="10" rx="5" fill="#D2D2D2"/><circle cx="90" cy="262" r="6" fill="#6541F2"/><polyline points="87,262 90,265 94,259" fill="none" stroke="#FFFFFF" stroke-width="1.6"/><rect x="106" y="257" width="164" height="10" rx="5" fill="#D2D2D2"/><circle cx="90" cy="294" r="6" fill="#6541F2"/><polyline points="87,294 90,297 94,291" fill="none" stroke="#FFFFFF" stroke-width="1.6"/><rect x="106" y="289" width="164" height="10" rx="5" fill="#D2D2D2"/><rect x="84" y="342" width="192" height="38" rx="10" fill="#FFFFFF" stroke="#B0B0B0" stroke-width="1.5"/><text x="180" y="366" text-anchor="middle" font-size="13" font-weight="700" fill="#5A5A5A">선택</text><rect x="320" y="80" width="240" height="320" rx="16" fill="#FFFFFF" stroke="#6541F2" stroke-width="3"/><rect x="400" y="66" width="80" height="26" rx="13" fill="#6541F2"/><text x="440" y="84" text-anchor="middle" font-size="11" font-weight="700" fill="#FFFFFF">추천</text><text x="440" y="130" text-anchor="middle" font-size="14" font-weight="700" fill="#5A5A5A">Pro</text><text x="440" y="176" text-anchor="middle" font-size="26" font-weight="800" fill="#5A5A5A">₩9,900</text><text x="440" y="196" text-anchor="middle" font-size="11" fill="#8C8C8C">/월</text><circle cx="350" cy="230" r="6" fill="#6541F2"/><polyline points="347,230 350,233 354,227" fill="none" stroke="#FFFFFF" stroke-width="1.6"/><rect x="366" y="225" width="164" height="10" rx="5" fill="#D2D2D2"/><circle cx="350" cy="262" r="6" fill="#6541F2"/><polyline points="347,262 350,265 354,259" fill="none" stroke="#FFFFFF" stroke-width="1.6"/><rect x="366" y="257" width="164" height="10" rx="5" fill="#D2D2D2"/><circle cx="350" cy="294" r="6" fill="#6541F2"/><polyline points="347,294 350,297 354,291" fill="none" stroke="#FFFFFF" stroke-width="1.6"/><rect x="366" y="289" width="164" height="10" rx="5" fill="#D2D2D2"/><rect x="344" y="342" width="192" height="38" rx="10" fill="#6541F2"/><text x="440" y="366" text-anchor="middle" font-size="13" font-weight="700" fill="#FFFFFF">선택</text><rect x="580" y="80" width="240" height="320" rx="16" fill="#FFFFFF" stroke="#D2D2D2" stroke-width="1"/><text x="700" y="130" text-anchor="middle" font-size="14" font-weight="700" fill="#5A5A5A">Team</text><text x="700" y="176" text-anchor="middle" font-size="26" font-weight="800" fill="#5A5A5A">₩29,900</text><text x="700" y="196" text-anchor="middle" font-size="11" fill="#8C8C8C">/월</text><circle cx="610" cy="230" r="6" fill="#6541F2"/><polyline points="607,230 610,233 614,227" fill="none" stroke="#FFFFFF" stroke-width="1.6"/><rect x="626" y="225" width="164" height="10" rx="5" fill="#D2D2D2"/><circle cx="610" cy="262" r="6" fill="#6541F2"/><polyline points="607,262 610,265 614,259" fill="none" stroke="#FFFFFF" stroke-width="1.6"/><rect x="626" y="257" width="164" height="10" rx="5" fill="#D2D2D2"/><circle cx="610" cy="294" r="6" fill="#6541F2"/><polyline points="607,294 610,297 614,291" fill="none" stroke="#FFFFFF" stroke-width="1.6"/><rect x="626" y="289" width="164" height="10" rx="5" fill="#D2D2D2"/><rect x="604" y="342" width="192" height="38" rx="10" fill="#FFFFFF" stroke="#B0B0B0" stroke-width="1.5"/><text x="700" y="366" text-anchor="middle" font-size="13" font-weight="700" fill="#5A5A5A">선택</text></svg>