<svg xmlns="http://www.w3.org/2000/svg" viewBox="0 0 880 460" font-family="system-ui, -apple-system, 'Segoe UI', Roboto, sans-serif"><rect width="880" height="460" rx="20" fill="#EBEBEB"/><line x1="440" y1="40" x2="440" y2="420" stroke="#D2D2D2" stroke-width="1" stroke-dasharray="4 6"/><text x="40" y="60" font-size="14" font-weight="700" fill="#C53434">✗ 모호한 간격 — 그룹이 안 보임</text><rect x="40" y="90" width="360" height="34" rx="6" fill="#FFFFFF" stroke="#D2D2D2"/><rect x="58" y="100" width="180" height="10" rx="5" fill="#5A5A5A"/><rect x="58" y="116" width="240" height="6" rx="3" fill="#B0B0B0"/><rect x="40" y="152" width="360" height="34" rx="6" fill="#FFFFFF" stroke="#D2D2D2"/><rect x="58" y="162" width="180" height="10" rx="5" fill="#5A5A5A"/><rect x="58" y="178" width="240" height="6" rx="3" fill="#B0B0B0"/><rect x="40" y="214" width="360" height="34" rx="6" fill="#FFFFFF" stroke="#D2D2D2"/><rect x="58" y="224" width="180" height="10" rx="5" fill="#5A5A5A"/><rect x="58" y="240" width="240" height="6" rx="3" fill="#B0B0B0"/><rect x="40" y="276" width="360" height="34" rx="6" fill="#FFFFFF" stroke="#D2D2D2"/><rect x="58" y="286" width="180" height="10" rx="5" fill="#5A5A5A"/><rect x="58" y="302" width="240" height="6" rx="3" fill="#B0B0B0"/><rect x="40" y="338" width="360" height="34" rx="6" fill="#FFFFFF" stroke="#D2D2D2"/><rect x="58" y="348" width="180" height="10" rx="5" fill="#5A5A5A"/><rect x="58" y="364" width="240" height="6" rx="3" fill="#B0B0B0"/><rect x="40" y="400" width="360" height="34" rx="6" fill="#FFFFFF" stroke="#D2D2D2"/><rect x="58" y="410" width="180" height="10" rx="5" fill="#5A5A5A"/><rect x="58" y="426" width="240" height="6" rx="3" fill="#B0B0B0"/><text x="460" y="60" font-size="14" font-weight="700" fill="#6541F2">✓ 그룹 간격 대비 — 3+3 묶음</text><rect x="460" y="90" width="360" height="34" rx="6" fill="#FFFFFF" stroke="#D2D2D2"/><rect x="478" y="100" width="180" height="10" rx="5" fill="#5A5A5A"/><rect x="478" y="116" width="240" height="6" rx="3" fill="#B0B0B0"/><rect x="460" y="138" width="360" height="34" rx="6" fill="#FFFFFF" stroke="#D2D2D2"/><rect x="478" y="148" width="180" height="10" rx="5" fill="#5A5A5A"/><rect x="478" y="164" width="240" height="6" rx="3" fill="#B0B0B0"/><rect x="460" y="186" width="360" height="34" rx="6" fill="#FFFFFF" stroke="#D2D2D2"/><rect x="478" y="196" width="180" height="10" rx="5" fill="#5A5A5A"/><rect x="478" y="212" width="240" height="6" rx="3" fill="#B0B0B0"/><rect x="460" y="290" width="360" height="34" rx="6" fill="#FFFFFF" stroke="#D2D2D2"/><rect x="478" y="300" width="180" height="10" rx="5" fill="#5A5A5A"/><rect x="478" y="316" width="240" height="6" rx="3" fill="#B0B0B0"/><rect x="460" y="338" width="360" height="34" rx="6" fill="#FFFFFF" stroke="#D2D2D2"/><rect x="478" y="348" width="180" height="10" rx="5" fill="#5A5A5A"/><rect x="478" y="364" width="240" height="6" rx="3" fill="#B0B0B0"/><rect x="460" y="386" width="360" height="34" rx="6" fill="#FFFFFF" stroke="#D2D2D2"/><rect x="478" y="396" width="180" height="10" rx="5" fill="#5A5A5A"/><rect x="478" y="412" width="240" height="6" rx="3" fill="#B0B0B0"/></svg>