<svg xmlns="http://www.w3.org/2000/svg" viewBox="0 0 880 460" font-family="system-ui, -apple-system, 'Segoe UI', Roboto, sans-serif"><rect width="880" height="460" rx="20" fill="#EBEBEB"/><line x1="440" y1="40" x2="440" y2="420" stroke="#D2D2D2" stroke-width="1" stroke-dasharray="4 6"/><text x="40" y="60" font-size="14" font-weight="700" fill="#C53434">✗ 상자 천지 — 시각 복잡도 폭발</text><rect x="60" y="90" width="360" height="90" rx="10" fill="#FFFFFF" stroke="#6541F2" stroke-width="2"/><rect x="74" y="104" width="160" height="10" rx="5" fill="#5A5A5A"/><rect x="74" y="122" width="320" height="6" rx="3" fill="#B0B0B0"/><rect x="60" y="196" width="174" height="70" rx="10" fill="#FFFFFF" stroke="#6541F2" stroke-width="2"/><rect x="74" y="210" width="146" height="10" rx="5" fill="#5A5A5A"/><rect x="74" y="228" width="134" height="6" rx="3" fill="#B0B0B0"/><rect x="246" y="196" width="174" height="70" rx="10" fill="#FFFFFF" stroke="#6541F2" stroke-width="2"/><rect x="260" y="210" width="146" height="10" rx="5" fill="#5A5A5A"/><rect x="260" y="228" width="134" height="6" rx="3" fill="#B0B0B0"/><rect x="60" y="282" width="360" height="60" rx="10" fill="#FFFFFF" stroke="#6541F2" stroke-width="2"/><rect x="74" y="296" width="160" height="10" rx="5" fill="#5A5A5A"/><rect x="74" y="314" width="320" height="6" rx="3" fill="#B0B0B0"/><text x="460" y="60" font-size="14" font-weight="700" fill="#6541F2">✓ 여백 우선 — 박스 없이도 묶임</text><rect x="478" y="104" width="160" height="10" rx="5" fill="#5A5A5A"/><rect x="478" y="122" width="320" height="6" rx="3" fill="#B0B0B0"/><rect x="478" y="134" width="280" height="6" rx="3" fill="#B0B0B0"/><rect x="478" y="200" width="120" height="10" rx="5" fill="#5A5A5A"/><rect x="478" y="218" width="160" height="6" rx="3" fill="#B0B0B0"/><rect x="650" y="200" width="120" height="10" rx="5" fill="#5A5A5A"/><rect x="650" y="218" width="160" height="6" rx="3" fill="#B0B0B0"/><rect x="478" y="290" width="160" height="10" rx="5" fill="#5A5A5A"/><rect x="478" y="308" width="320" height="6" rx="3" fill="#B0B0B0"/></svg>