<svg xmlns="http://www.w3.org/2000/svg" viewBox="0 0 880 460" font-family="system-ui, -apple-system, 'Segoe UI', Roboto, sans-serif"><rect width="880" height="460" rx="20" fill="#EBEBEB"/><line x1="440" y1="40" x2="440" y2="420" stroke="#D2D2D2" stroke-width="1" stroke-dasharray="4 6"/><text x="40" y="60" font-size="14" font-weight="700" fill="#C53434">✗ 필드마다 카드 — 폼 산만</text><rect x="40" y="96" width="380" height="62" rx="12" fill="#FFFFFF" stroke="#6541F2" stroke-width="1.5"/><text x="60" y="118" font-size="12" fill="#8C8C8C">이메일</text><rect x="60" y="126" width="340" height="22" rx="6" fill="#EBEBEB" stroke="#B0B0B0"/><rect x="40" y="174" width="380" height="62" rx="12" fill="#FFFFFF" stroke="#6541F2" stroke-width="1.5"/><text x="60" y="196" font-size="12" fill="#8C8C8C">이름</text><rect x="60" y="204" width="340" height="22" rx="6" fill="#EBEBEB" stroke="#B0B0B0"/><rect x="40" y="252" width="380" height="62" rx="12" fill="#FFFFFF" stroke="#6541F2" stroke-width="1.5"/><text x="60" y="274" font-size="12" fill="#8C8C8C">전화번호</text><rect x="60" y="282" width="340" height="22" rx="6" fill="#EBEBEB" stroke="#B0B0B0"/><rect x="40" y="330" width="380" height="62" rx="12" fill="#FFFFFF" stroke="#6541F2" stroke-width="1.5"/><text x="60" y="352" font-size="12" fill="#8C8C8C">회사명</text><rect x="60" y="360" width="340" height="22" rx="6" fill="#EBEBEB" stroke="#B0B0B0"/><text x="460" y="60" font-size="14" font-weight="700" fill="#6541F2">✓ 라벨 + 필드만 — 간결</text><text x="460" y="108" font-size="12" fill="#5A5A5A" font-weight="600">이메일</text><rect x="460" y="118" width="360" height="36" rx="8" fill="#FFFFFF" stroke="#B0B0B0"/><text x="460" y="186" font-size="12" fill="#5A5A5A" font-weight="600">이름</text><rect x="460" y="196" width="360" height="36" rx="8" fill="#FFFFFF" stroke="#B0B0B0"/><text x="460" y="264" font-size="12" fill="#5A5A5A" font-weight="600">전화번호</text><rect x="460" y="274" width="360" height="36" rx="8" fill="#FFFFFF" stroke="#B0B0B0"/><text x="460" y="342" font-size="12" fill="#5A5A5A" font-weight="600">회사명</text><rect x="460" y="352" width="360" height="36" rx="8" fill="#FFFFFF" stroke="#B0B0B0"/></svg>