<svg xmlns="http://www.w3.org/2000/svg" viewBox="0 0 880 460" font-family="system-ui, -apple-system, 'Segoe UI', Roboto, sans-serif"><rect width="880" height="460" rx="20" fill="#EBEBEB"/><line x1="440" y1="40" x2="440" y2="420" stroke="#D2D2D2" stroke-width="1" stroke-dasharray="4 6"/><text x="40" y="60" font-size="14" font-weight="700" fill="#C53434">✗ 중첩 카드 — 깊이 인지 혼란</text><rect x="40" y="90" width="380" height="302" rx="14" fill="#FFFFFF" stroke="#6541F2" stroke-width="2"/><rect x="58" y="110" width="344" height="78" rx="10" fill="#F2EEFE" stroke="#6541F2" stroke-width="1.5"/><rect x="76" y="128" width="140" height="10" rx="5" fill="#5A5A5A"/><rect x="76" y="148" width="280" height="26" rx="8" fill="#FFFFFF" stroke="#B0B0B0"/><rect x="58" y="202" width="344" height="78" rx="10" fill="#F2EEFE" stroke="#6541F2" stroke-width="1.5"/><rect x="76" y="220" width="140" height="10" rx="5" fill="#5A5A5A"/><rect x="76" y="240" width="280" height="26" rx="8" fill="#FFFFFF" stroke="#B0B0B0"/><rect x="58" y="294" width="344" height="78" rx="10" fill="#F2EEFE" stroke="#6541F2" stroke-width="1.5"/><rect x="76" y="312" width="140" height="10" rx="5" fill="#5A5A5A"/><rect x="76" y="332" width="280" height="26" rx="8" fill="#FFFFFF" stroke="#B0B0B0"/><text x="460" y="60" font-size="14" font-weight="700" fill="#6541F2">✓ 단일 카드 + 섹션 여백</text><rect x="460" y="90" width="380" height="320" rx="14" fill="#FFFFFF" stroke="#D2D2D2"/><rect x="480" y="114" width="140" height="10" rx="5" fill="#5A5A5A"/><rect x="480" y="132" width="320" height="8" rx="4" fill="#B0B0B0"/><rect x="480" y="146" width="260" height="8" rx="4" fill="#B0B0B0"/><line x1="480" y1="180" x2="820" y2="180" stroke="#D2D2D2" stroke-width="1" stroke-dasharray="2 4"/><rect x="480" y="218" width="140" height="10" rx="5" fill="#5A5A5A"/><rect x="480" y="236" width="320" height="8" rx="4" fill="#B0B0B0"/><rect x="480" y="250" width="260" height="8" rx="4" fill="#B0B0B0"/><line x1="480" y1="284" x2="820" y2="284" stroke="#D2D2D2" stroke-width="1" stroke-dasharray="2 4"/><rect x="480" y="322" width="140" height="10" rx="5" fill="#5A5A5A"/><rect x="480" y="340" width="320" height="8" rx="4" fill="#B0B0B0"/><rect x="480" y="354" width="260" height="8" rx="4" fill="#B0B0B0"/></svg>