<svg xmlns="http://www.w3.org/2000/svg" viewBox="0 0 880 460" font-family="system-ui, -apple-system, 'Segoe UI', Roboto, sans-serif"><rect width="880" height="460" rx="20" fill="#EBEBEB"/><line x1="440" y1="40" x2="440" y2="420" stroke="#D2D2D2" stroke-width="1" stroke-dasharray="4 6"/><text x="40" y="60" font-size="14" font-weight="700" fill="#C53434">✗ 전부 강조 — 핵심 사라짐</text><rect x="60" y="100" width="340" height="12" rx="6" fill="#6541F2"/><rect x="60" y="120" width="280" height="10" rx="5" fill="#6541F2"/><rect x="60" y="150" width="340" height="12" rx="6" fill="#6541F2"/><rect x="60" y="170" width="280" height="10" rx="5" fill="#6541F2"/><rect x="60" y="200" width="340" height="12" rx="6" fill="#6541F2"/><rect x="60" y="220" width="280" height="10" rx="5" fill="#6541F2"/><rect x="60" y="250" width="340" height="12" rx="6" fill="#6541F2"/><rect x="60" y="270" width="280" height="10" rx="5" fill="#6541F2"/><rect x="60" y="300" width="340" height="12" rx="6" fill="#6541F2"/><rect x="60" y="320" width="280" height="10" rx="5" fill="#6541F2"/><text x="460" y="60" font-size="14" font-weight="700" fill="#6541F2">✓ 한 곳만 강조 — 핵심 부각</text><rect x="480" y="100" width="340" height="12" rx="6" fill="#D2D2D2"/><rect x="480" y="120" width="280" height="10" rx="5" fill="#D2D2D2"/><rect x="480" y="150" width="340" height="12" rx="6" fill="#D2D2D2"/><rect x="480" y="170" width="280" height="10" rx="5" fill="#D2D2D2"/><rect x="480" y="200" width="340" height="12" rx="6" fill="#6541F2"/><rect x="480" y="220" width="280" height="10" rx="5" fill="#6541F2"/><rect x="480" y="250" width="340" height="12" rx="6" fill="#D2D2D2"/><rect x="480" y="270" width="280" height="10" rx="5" fill="#D2D2D2"/><rect x="480" y="300" width="340" height="12" rx="6" fill="#D2D2D2"/><rect x="480" y="320" width="280" height="10" rx="5" fill="#D2D2D2"/></svg>