<svg xmlns="http://www.w3.org/2000/svg" viewBox="0 0 720 360"><rect x="0" y="0" width="720" height="360" rx="16" fill="#EBEBEB"/><line x1="360" y1="60" x2="360" y2="300" stroke="#D2D2D2" stroke-width="2" stroke-dasharray="6 8"/><circle cx="80" cy="110" r="20" fill="#8C8C8C"/><circle cx="170" cy="110" r="20" fill="#8C8C8C"/><circle cx="260" cy="110" r="20" fill="#8C8C8C"/><circle cx="80" cy="180" r="20" fill="#8C8C8C"/><circle cx="170" cy="180" r="20" fill="#8C8C8C"/><circle cx="260" cy="180" r="20" fill="#8C8C8C"/><circle cx="80" cy="250" r="20" fill="#8C8C8C"/><circle cx="170" cy="250" r="20" fill="#8C8C8C"/><circle cx="260" cy="250" r="20" fill="#8C8C8C"/><circle cx="428" cy="134" r="20" fill="#8C8C8C"/><circle cx="472" cy="134" r="20" fill="#8C8C8C"/><circle cx="450" cy="98" r="20" fill="#8C8C8C"/><circle cx="588" cy="134" r="20" fill="#8C8C8C"/><circle cx="632" cy="134" r="20" fill="#8C8C8C"/><circle cx="610" cy="98" r="20" fill="#8C8C8C"/><circle cx="508" cy="264" r="20" fill="#8C8C8C"/><circle cx="552" cy="264" r="20" fill="#8C8C8C"/><circle cx="530" cy="228" r="20" fill="#8C8C8C"/></svg>