<svg xmlns="http://www.w3.org/2000/svg" viewBox="0 0 720 360"><rect x="0" y="0" width="720" height="360" rx="16" fill="#EBEBEB"/><circle cx="110" cy="180" r="18" fill="#B0B0B0"/><line x1="110" y1="152" x2="110" y2="110" stroke="#6541F2" stroke-width="6"/><path d="M101,110 L110,96 L119,110 Z" fill="#6541F2"/><circle cx="230" cy="180" r="18" fill="#B0B0B0"/><line x1="230" y1="152" x2="230" y2="110" stroke="#6541F2" stroke-width="6"/><path d="M221,110 L230,96 L239,110 Z" fill="#6541F2"/><circle cx="350" cy="180" r="18" fill="#B0B0B0"/><line x1="350" y1="152" x2="350" y2="110" stroke="#6541F2" stroke-width="6"/><path d="M341,110 L350,96 L359,110 Z" fill="#6541F2"/><circle cx="470" cy="180" r="18" fill="#8C8C8C"/><line x1="470" y1="208" x2="470" y2="250" stroke="#5A5A5A" stroke-width="6"/><path d="M461,250 L470,264 L479,250 Z" fill="#5A5A5A"/><circle cx="590" cy="180" r="18" fill="#B0B0B0"/><line x1="590" y1="152" x2="590" y2="110" stroke="#6541F2" stroke-width="6"/><path d="M581,110 L590,96 L599,110 Z" fill="#6541F2"/></svg>