<svg xmlns="http://www.w3.org/2000/svg" viewBox="0 0 720 360" font-family="system-ui, -apple-system, sans-serif">
  <rect width="720" height="360" rx="16" fill="#EBEBEB"/>
  <rect x="30" y="30" width="660" height="300" rx="14" fill="#FFFFFF" stroke="#D2D2D2" stroke-width="2" stroke-dasharray="14 10"/>
  <!-- mock page: header + 2 columns annotated with colored region overlays -->
  <rect x="60" y="60" width="600" height="32" rx="6" fill="#F2EEFE"/>
  <rect x="76" y="72" width="80" height="10" rx="5" fill="#6541F2"/>
  <rect x="60" y="120" width="360" height="170" rx="10" fill="#F2EEFE" stroke="#6541F2" stroke-width="2" stroke-dasharray="6 4"/>
  <rect x="80" y="140" width="180" height="12" rx="6" fill="#5A5A5A"/>
  <rect x="80" y="162" width="320" height="8" rx="4" fill="#B0B0B0"/>
  <rect x="80" y="178" width="280" height="8" rx="4" fill="#B0B0B0"/>
  <rect x="80" y="216" width="120" height="38" rx="8" fill="#6541F2"/>
  <rect x="440" y="120" width="220" height="170" rx="10" fill="none" stroke="#8C8C8C" stroke-width="2" stroke-dasharray="6 4"/>
  <rect x="456" y="136" width="188" height="80" rx="6" fill="#D2D2D2"/>
  <rect x="456" y="226" width="120" height="10" rx="5" fill="#5A5A5A"/>
  <rect x="456" y="244" width="160" height="8" rx="4" fill="#B0B0B0"/>
  <!-- annotation labels -->
  <text x="60" y="312" font-size="11" font-weight="700" fill="#6541F2">전경(figure)</text>
  <text x="440" y="312" font-size="11" font-weight="700" fill="#707070">보조 영역</text>
  <!-- placeholder banner -->
  <rect x="0" y="0" width="720" height="24" fill="#6541F2"/>
  <text x="14" y="16" font-size="11" font-weight="700" fill="#FFFFFF" letter-spacing="1">PLACEHOLDER — 위계 분석용 본인 작업 캡처로 교체</text>
</svg>
